<?xml version="1.0" standalone="no"?>
<!DOCTYPE svg PUBLIC "-//W3C//DTD SVG 1.1//EN" "http://www.w3.org/Graphics/SVG/1.1/DTD/svg11.dtd" >
<svg>
<metadata>
Created by FontForge 20110222 at Wed Jul  9 16:02:53 2014
 By Orthosie Webhosting
   
</metadata>
<defs>
<font id="Futura_BookBoldRegular" horiz-adv-x="0" >
  <font-face 
    font-family="Futura_BookBoldRegular"
    font-weight="400"
    font-stretch="normal"
    units-per-em="1000"
    panose-1="0 0 0 0 0 0 0 0 0 0"
    ascent="800"
    descent="-200"
    x-height="428"
    cap-height="637"
    bbox="2 -209 971 878"
    underline-thickness="50"
    underline-position="-55"
    unicode-range="U+0020-2219"
  />
<missing-glyph 
 />
    <glyph glyph-name=".notdef" 
 />
    <glyph glyph-name="glyph1" 
 />
    <glyph glyph-name="glyph2" horiz-adv-x="365" 
 />
    <glyph glyph-name="glyph3" unicode=" " horiz-adv-x="365" 
 />
    <glyph glyph-name="glyph4" unicode="!" horiz-adv-x="340" 
d="M240 60q0 -32 -21.5 -49t-46.5 -19q-3 -1 -5.5 -1h-4.5q-28 0 -51 17t-23 52q0 37 23.5 55t52.5 18h2.5h2.5q27 -2 49 -20t22 -53v0zM97 652h125v-453h-125v453v0z" />
    <glyph glyph-name="glyph5" unicode="&#x22;" horiz-adv-x="400" 
d="M86 626h84v-244h-84v244v0zM227 626h84v-244h-84v244v0z" />
    <glyph glyph-name="glyph6" unicode="#" horiz-adv-x="770" 
d="M348 637h98l-64 -182h106l65 182h95l-63 -182h122l-33 -85h-121l-36 -106h126l-30 -87h-128l-65 -180h-96l65 180h-107l-65 -180h-95l63 180h-125l34 87h123l37 106h-129l32 85h128l63 182v0zM420 264l39 106h-111l-37 -106h109v0z" />
    <glyph glyph-name="glyph7" unicode="$" horiz-adv-x="580" 
d="M280 -65v67q-59 3 -110 22.5t-86 71.5l76 81q19 -38 48.5 -54.5t71.5 -18.5v170q-10 5 -20.5 10t-21.5 10q-53 27 -98 65t-46 105v0.5t-1 1.5v0v0q0 1 -0.5 1.5l-0.5 0.5q0 69 51 108.5t112 53.5q10 3 19.5 4.5t18.5 2.5v50h41v-50q51 -4 87.5 -21.5t69.5 -57.5l-79 -73
q-1 1 -2 2.5t-1 2.5q-15 21 -32 31.5t-43 16.5v-160q10 -4 20.5 -8.5t20.5 -10.5q51 -24 93.5 -62t45.5 -96v-15q0 -80 -58.5 -127t-132.5 -56v-68h-43v0zM323 109q24 10 43 26.5t20 44.5v2q0 25 -17.5 42.5t-37.5 28.5q-2 0 -4 1l-4 2v-147v0zM229 483q-1 -2 -1.5 -4.5
t-1.5 -4.5q0 -2 -0.5 -4.5t-0.5 -4.5q0 -22 16 -38t36 -27l8 -4l8 -4v146q-22 -6 -40 -18.5t-24 -36.5v0z" />
    <glyph glyph-name="glyph8" unicode="%" horiz-adv-x="840" 
d="M259 -15h-66l373 658h64l-371 -658v0zM763 92q-14 -55 -54 -80.5t-90 -25.5h-9.5h-10.5q-4 1 -7.5 1t-6.5 1q-57 9 -85.5 53.5t-33.5 96.5q-1 5 -1 10.5v10.5v6.5t1 7.5q0 10 2 20t4 19q13 55 55.5 89t93.5 34q9 0 18.5 -1t19.5 -4q10 -2 19.5 -5.5t18.5 -8.5
q36 -19 54 -57.5t21 -80.5q1 -5 1 -9.5v-8.5q0 -7 -0.5 -14t-1.5 -14q-2 -10 -4 -20.5t-4 -19.5v0zM559 159q0 -9 1 -21.5t3 -25.5q5 -25 17.5 -46t38.5 -21q28 0 40 20.5t16 45.5q2 10 3 20t1 18v16q0 8 -0.5 17.5t-1.5 19.5q-3 23 -12.5 43.5t-30.5 25.5q-1 0 -3 0.5
t-4 0.5h-4.5h-4.5q-24 0 -36.5 -21.5t-18.5 -46.5q-2 -12 -3 -24t-1 -21v0zM284 626q34 -19 52 -55t22 -75q1 -7 1.5 -14.5t0.5 -14.5v-8.5t-1 -8.5q0 -13 -2 -26t-5 -25q-16 -52 -55.5 -79.5t-89.5 -27.5q-8 0 -16.5 1t-17.5 2q-59 9 -87.5 55t-31.5 99q-1 4 -1 8v8
q0 5 0.5 10.5t0.5 10.5l2 12l2 12q1 3 1.5 5.5t0.5 4.5q10 55 52.5 90t94.5 35q9 0 19 -1t20 -4q9 -2 19 -5.5t19 -8.5v0zM222 580h-3t-3 1h-1.5h-1.5q-2 0 -4 0.5t-3 0.5q-24 0 -37.5 -21t-18.5 -46q-2 -11 -3 -21t-1 -19v-2t1 -1v-2v-2v-1v-3q-1 0 -1 -0.5v-1.5v-1v-2
q0 -8 1 -17.5t2 -19.5q5 -26 18 -47.5t39 -21.5q27 0 39 20t17 44q2 11 3 21t1 19v16q0 9 -0.5 18.5t-1.5 19.5q-4 23 -13.5 43t-28.5 26v0z" />
    <glyph glyph-name="glyph9" unicode="&#x26;" horiz-adv-x="710" 
d="M652 0h-145l-53 63q-34 -32 -78.5 -52t-90.5 -24q-5 -1 -9.5 -1h-9.5q-10 0 -20 1l-20 2q-20 4 -39.5 11t-37.5 18q-32 22 -51.5 58t-23.5 74q-1 5 -1 9v8q0 3 0.5 7t0.5 8q0 1 0.5 2t0.5 3t0.5 4.5t0.5 4.5q10 56 48 93t83 66q-28 30 -47 64.5t-19 71.5q0 7 1 14.5
t2 14.5q1 5 2.5 10t2.5 10q16 49 61 72t96 23q64 0 117 -34.5t53 -101.5v-11q-4 -42 -31 -72t-58 -54q-7 -4 -13.5 -9t-12.5 -9l107 -125l16 16t15 16q16 16 32 33t30 34l71 -75q-12 -13 -24 -25.5t-24 -25.5q-13 -13 -25 -25.5t-24 -25.5l117 -141v0zM204 131
q10 -13 20 -22t21 -14q10 -6 20 -8.5t20 -2.5q21 0 39.5 8.5t33.5 19.5q14 10 22.5 18.5l8.5 8.5l-120 143q-4 -3 -8 -5.5t-7 -5.5q-19 -16 -36 -36.5t-24 -42.5q-2 -6 -3 -11.5t-1 -11.5q0 -10 4 -19.5t10 -18.5v0zM300 405q1 1 2 1.5l3 1.5l2 2t2 1q20 14 37 29.5t22 40.5
v12q0 26 -18 42t-39 19h-4h-4h-2.5h-3.5q-16 -2 -30.5 -13.5t-16.5 -34.5q0 -1 -0.5 -2.5t-0.5 -3.5q0 -1 -0.5 -2.5t-0.5 -3.5q0 -20 11 -37t24 -33q5 -5 9 -9.5t8 -9.5v0z" />
    <glyph glyph-name="glyph10" unicode="'" horiz-adv-x="381" 
d="M78 366l86 271h133l-135 -271h-84v0z" />
    <glyph glyph-name="glyph11" unicode="(" horiz-adv-x="381" 
d="M318 637q-38 -84 -61.5 -174t-29.5 -180q-1 -16 -1.5 -31t-0.5 -30t0.5 -29.5t1.5 -28.5q6 -88 29 -174t62 -167l-98 -26q-45 96 -71.5 196t-30.5 202q-1 9 -1 18.5v18.5q0 28 2 57t5 57q10 81 34 160t62 154l98 -23v0z" />
    <glyph glyph-name="glyph12" unicode=")" horiz-adv-x="361" 
d="M58 637l99 23q39 -76 63 -159t33 -167q2 -25 3.5 -49.5t1.5 -49.5q0 -15 -0.5 -30t-1.5 -30q-6 -97 -31.5 -192t-67.5 -185l-99 24q47 95 69 195.5t22 202.5q0 24 -1 47.5t-4 46.5q-8 83 -29.5 165t-56.5 158v0z" />
    <glyph glyph-name="glyph13" unicode="*" horiz-adv-x="472" 
d="M117 363l-39 60l102 52l-99 52l36 60l89 -65l-5 115h70l-7 -113l89 63l34 -60l-97 -54l97 -50l-34 -60l-90 65l8 -109h-70l8 107l-92 -63v0z" />
    <glyph glyph-name="glyph14" unicode="+" horiz-adv-x="580" 
d="M243 530h88v-220h217v-86h-217v-224h-88v224h-215v86h215v220v0z" />
    <glyph glyph-name="glyph15" unicode="," horiz-adv-x="391" 
d="M78 -143l86 271h133l-135 -271h-84v0z" />
    <glyph glyph-name="glyph16" unicode="-" horiz-adv-x="332" 
d="M45 157v110h243v-110h-243v0z" />
    <glyph glyph-name="glyph17" unicode="." horiz-adv-x="311" 
d="M164 -15q-38 1 -56.5 24.5t-18.5 52.5v2.5v2.5q2 27 21 49t54 22q32 0 50 -21.5t20 -46.5q1 -3 1 -5.5v-4.5v-1.5v-1.5q-1 -27 -19 -49t-52 -22v-1z" />
    <glyph glyph-name="glyph18" unicode="/" horiz-adv-x="580" 
d="M92 -81l312 733h92l-311 -733h-93v0z" />
    <glyph glyph-name="glyph19" unicode="0" horiz-adv-x="590" 
d="M410 611q53 -36 79 -103t33 -139q2 -15 2.5 -29.5t0.5 -28.5q0 -34 -3.5 -66t-9.5 -60q-22 -90 -78.5 -144.5t-140.5 -54.5q-9 0 -19 1l-20 2q-4 0 -7.5 0.5t-6.5 1.5q-93 16 -134 94.5t-49 169.5q-1 14 -1.5 27.5t-0.5 27.5v13.5t1 13.5l2 24l2 24q1 7 1.5 14t1.5 14
q1 9 3 17.5t4 17.5q14 53 43.5 101.5t80.5 74.5q14 7 30 11t33 6q8 1 16.5 1.5t16.5 0.5q7 0 14 -0.5t14 -1.5q25 -2 49 -10t43 -20v0zM186 313q0 -18 1.5 -41.5t5.5 -48.5q8 -46 29.5 -84.5t67.5 -38.5t67.5 37.5t28.5 82.5q4 21 5 41.5t1 36.5v15q0 18 -1 42t-5 49
q-6 40 -21.5 74.5t-48.5 45.5q-2 0 -4.5 0.5t-5.5 0.5q-4 1 -8.5 1.5t-9.5 0.5q-43 0 -64.5 -38.5t-29.5 -84.5q-5 -25 -6.5 -49t-1.5 -42v0z" />
    <glyph glyph-name="glyph20" unicode="1" horiz-adv-x="350" 
d="M149 0v528h-81v101h196v-629h-115v0z" />
    <glyph glyph-name="glyph21" unicode="2" horiz-adv-x="590" 
d="M512 105v-105h-441l227 297q7 9 16.5 21.5t19.5 27.5q10 16 20 33t17 34q5 12 7.5 24t2.5 23v3.5v3.5q-2 16 -9.5 30.5t-23.5 24.5q-6 4 -14.5 7t-16.5 4q-5 1 -9 1.5t-8 0.5q-3 0 -6.5 -0.5t-7.5 -0.5q-9 -2 -17.5 -5t-15.5 -7q-20 -15 -27 -36.5t-9 -44.5v-3.5v-3.5
h-128q2 56 18 103.5t70 78.5q21 12 46.5 19t51.5 9q6 1 11.5 1h11.5h2.5h3.5q78 -2 143 -46.5t65 -131.5q0 -64 -34 -122t-74 -109q-12 -15 -24 -29.5t-23 -28.5l-59 -73h214v0z" />
    <glyph glyph-name="glyph22" unicode="3" horiz-adv-x="580" 
d="M63 169h127q0 -39 28.5 -60t63.5 -21h6t6 1q30 3 56.5 21t31.5 49q0 2 0.5 4.5t0.5 5.5q0 2 0.5 4.5t0.5 4.5v4.5v5.5q-2 22 -12 43t-30 32q-6 3 -13 5t-14 3q-8 2 -16 2.5t-15 0.5h-25v112q2 0 4 -0.5t5 -0.5h1h2q1 -1 3 -1h3h8.5t8.5 1q17 2 33 9t26 21q4 5 6.5 11
t4.5 12q2 5 3 11t1 11q0 32 -26 56t-60 24q-2 0 -5 -0.5t-5 -0.5q-3 0 -6 -0.5t-5 -0.5q-24 -6 -36.5 -23t-17.5 -40h-121q4 83 68.5 127.5t140.5 44.5q9 0 18 -0.5t18 -2.5q27 -4 53 -13.5t47 -24.5q27 -19 43 -48.5t21 -61.5q0 -5 0.5 -10.5t0.5 -10.5v-2v-2
q-1 -46 -28 -86.5t-79 -50.5q58 -14 88 -56.5t34 -90.5q1 -4 1 -7.5v-7.5v-5.5v-5.5q-3 -43 -25 -81.5t-61 -61.5q-23 -11 -50 -18.5t-55 -11.5q-10 -2 -21 -2.5t-21 -0.5h-2.5h-3.5q-57 1 -109 23.5t-81 72.5q-12 20 -15 40.5t-5 42.5v2.5v2.5v0z" />
    <glyph glyph-name="glyph23" unicode="4" horiz-adv-x="609" 
d="M480 0h-117v122h-306v60l306 461h117v-429h68v-92h-68v-122v0zM366 214v219q0 20 0.5 39.5t3.5 39.5q-9 -23 -19.5 -45.5t-24.5 -43.5l-138 -209h178v0z" />
    <glyph glyph-name="glyph24" unicode="5" horiz-adv-x="580" 
d="M89 139q12 -7 22.5 -13.5t21.5 -12.5q19 -10 39.5 -17t46.5 -8q2 0 4 -0.5t4 -0.5t4 -0.5t4 -0.5h9.5t8.5 1q40 4 74 25.5t43 65.5v4t1 4v11v10q0 55 -40 82t-91 27q-9 0 -18 -0.5t-18 -2.5q-23 -4 -46 -12.5t-41 -20.5l-29 18l77 332h329v-106h-244l-31 -129
q10 3 20.5 5t21.5 4q11 1 21.5 2t20.5 1q9 0 17.5 -0.5t16.5 -1.5q18 -3 35 -8t33 -13q50 -27 74.5 -76.5t24.5 -103.5q0 -8 -0.5 -16.5t-1.5 -16.5t-2.5 -16.5t-3.5 -16.5q-23 -80 -94 -116t-151 -36h-9.5h-9.5q-46 3 -90.5 16t-78.5 34l26 103v0z" />
    <glyph glyph-name="glyph25" unicode="6" horiz-adv-x="571" 
d="M246 381q13 6 26.5 9.5t27.5 4.5q6 1 13 1.5t14 0.5q5 0 10.5 -0.5t10.5 -0.5q32 -3 62 -16.5t52 -37.5q23 -24 35 -56t14 -65q1 -5 1 -9.5v-8.5v-5.5v-4.5q-3 -56 -30.5 -106t-76.5 -76q-20 -10 -42.5 -15.5t-46.5 -7.5q-8 -1 -15.5 -1.5t-15.5 -0.5q-61 0 -115.5 27.5
t-80.5 85.5q-6 16 -11 32.5t-7 33.5q-2 8 -2.5 16.5t-0.5 16.5q0 10 0.5 20t2.5 20q8 59 36 117t60 108q2 3 4 6.5t4 6.5l101 154h152l-182 -249v0zM190 196q0 -34 26.5 -59.5t59.5 -31.5q3 0 6.5 -0.5t7.5 -0.5q39 0 70 27.5t31 64.5q0 46 -30.5 68.5t-67.5 23.5h-1.5h-1.5
q-37 0 -68.5 -22.5t-31.5 -69.5v0z" />
    <glyph glyph-name="glyph26" unicode="7" horiz-adv-x="590" 
d="M104 0l256 524h-289v106h456v-38l-287 -592h-136v0z" />
    <glyph glyph-name="glyph27" unicode="8" horiz-adv-x="590" 
d="M94 480q4 84 66 123.5t138 39.5h3q76 0 137 -42t63 -125v-9q0 -47 -25.5 -79.5t-70.5 -50.5q55 -19 86 -62.5t31 -101.5v-16q-6 -84 -72 -126.5t-144 -45.5h-4.5h-4.5h-6h-6q-77 3 -142.5 46t-71.5 126v2v2v0h-1v3v1q0 57 31.5 104.5t86.5 67.5q-45 21 -70.5 51t-25.5 85
q0 1 0.5 2t0.5 2l0.5 1t0.5 2v0zM300 280h-1.5h-1.5q-37 -1 -67.5 -31t-30.5 -66q0 -44 30.5 -67.5t67.5 -24.5h1.5h1.5h5.5h4.5q34 4 62 27t28 65q0 37 -30.5 67t-69.5 30v0zM297 387h1.5h1.5q31 1 57.5 24.5t26.5 55.5q0 38 -26.5 57.5t-57.5 20.5h-1.5h-1.5
q-33 0 -60.5 -19.5t-27.5 -58.5q0 -32 26 -55t57 -25h2.5h2.5v0z" />
    <glyph glyph-name="glyph28" unicode="9" horiz-adv-x="592" 
d="M335 246q-11 -5 -24.5 -9t-26.5 -6q-8 -1 -16 -1.5t-15 -0.5h-4h-5q-34 2 -67 16t-57 40q-22 25 -36 55.5t-17 62.5q0 5 -0.5 10t-0.5 10v4.5v4.5q3 61 38.5 115.5t94.5 78.5q17 6 35.5 10t37.5 6q6 0 12.5 0.5t12.5 0.5h2h2q65 -1 122 -35t78 -101q3 -10 5.5 -20
t4.5 -20q1 -11 2 -21t1 -20q0 -7 -0.5 -13.5t-0.5 -12.5q-7 -65 -37.5 -128t-65.5 -117q-1 -1 -1.5 -2t-1.5 -2l-101 -151h-152l181 246v0zM389 436q0 37 -29.5 65.5t-66.5 28.5h-3h-5.5t-4.5 -1q-32 -4 -58 -31t-26 -60q0 -43 29.5 -66.5t64.5 -24.5h1.5h1.5h2.5h3.5
q33 2 61.5 24.5t28.5 64.5v0z" />
    <glyph glyph-name="glyph29" unicode=":" horiz-adv-x="321" 
d="M162 138q32 0 50 -21.5t20 -46.5q1 -3 1 -5.5v-4.5v-1.5v-1.5q-1 -27 -19 -49t-52 -22q-37 0 -55 23.5t-18 52.5v2.5v2.5q2 27 20 49t53 22v0zM162 269q-37 0 -56.5 23.5t-19.5 52.5q2 29 20.5 53.5t55.5 24.5q32 0 50 -21.5t20 -46.5q1 -3 1 -5.5v-4.5v-2.5v-2.5
q-2 -27 -19.5 -49t-51.5 -22v0z" />
    <glyph glyph-name="glyph30" unicode=";" horiz-adv-x="340" 
d="M26 -143l83 271h134l-134 -271h-83v0zM105 345q0 36 23 54t51 19h1.5h1.5h4h4q26 -3 47.5 -21t21.5 -52q0 -37 -23 -55t-51 -19h-1.5h-1.5q-29 0 -53 18.5t-24 55.5v0z" />
    <glyph glyph-name="glyph31" unicode="&#x3c;" horiz-adv-x="590" 
d="M549 520v-97l-389 -157l389 -159v-96l-512 213v86l512 210v0z" />
    <glyph glyph-name="glyph32" unicode="=" horiz-adv-x="569" 
d="M528 130h-520v86h520v-86v0zM8 402h520v-86h-520v86v0z" />
    <glyph glyph-name="glyph33" unicode="&#x3e;" horiz-adv-x="590" 
d="M37 520l512 -210v-86l-512 -213v96l388 159l-388 157v97v0z" />
    <glyph glyph-name="glyph34" unicode="?" horiz-adv-x="540" 
d="M258 130q29 0 53 -18.5t24 -54.5q0 -33 -21.5 -50.5t-47.5 -20.5h-4h-4q-28 0 -52 18t-24 53q0 36 23.5 54.5t52.5 18.5v0zM318 186h-120v187q2 0 4 -0.5t4 -0.5t4 -0.5t4 -0.5h8h8q26 2 49.5 10.5t38.5 33.5q3 7 6 15.5t4 17.5q0 4 0.5 7.5t0.5 6.5v5.5v4.5
q-3 32 -22 58t-48 26q-4 0 -9.5 -1t-11.5 -2q-3 -2 -7 -3.5t-7 -3.5q-20 -11 -26.5 -29t-7.5 -38v-10v-10h-124v0.5v1.5q-1 1 -1 1.5v1.5q0 47 20.5 89.5t61.5 67.5q25 16 55.5 24t61.5 8q6 0 11.5 -0.5t10.5 -0.5q28 -3 54.5 -11.5t46.5 -22.5q31 -22 48 -57t21 -72
q0 -6 0.5 -11.5t0.5 -10.5v-10.5t-1 -10.5q-1 -11 -2.5 -21.5t-4.5 -20.5q-13 -45 -50 -70t-81 -36v-112v0z" />
    <glyph glyph-name="glyph35" unicode="@" horiz-adv-x="929" 
d="M742 86q-18 -12 -40 -21.5t-45 -14.5q-10 -3 -20 -4t-19 -1q-13 0 -24.5 2.5t-22.5 5.5q-25 8 -34.5 25.5t-11.5 39.5q-23 -32 -56 -52.5t-74 -20.5l-3 2q-68 2 -103.5 40.5t-35.5 103.5v3t1 5v4v3v3.5v2.5q6 83 59 153t144 74h5q33 0 61 -13.5t44 -41.5l25 42h76
l-63 -261q0 -2 -0.5 -4t-0.5 -4q-1 0 -1 -0.5v-1.5q-1 -2 -1.5 -4.5t-0.5 -4.5q0 -16 10 -22.5t23 -6.5q7 0 16 2t18 6q10 4 20.5 9.5t18.5 11.5q1 1 3 2.5t3 2.5q33 29 52 71t22 86q1 6 1 11v10q0 9 -0.5 17.5t-1.5 17.5q-3 17 -7.5 34.5t-11.5 32.5q-33 67 -97.5 100
t-134.5 40q-6 0 -12 0.5t-12 0.5h-15q-100 0 -187 -47.5t-134 -138.5q-13 -26 -22.5 -57t-13.5 -62q-2 -11 -2.5 -21.5t-0.5 -20.5v-4v-4q2 -57 24 -111t67 -91q49 -41 109.5 -60t123.5 -19q10 0 20 0.5t20 1.5q62 6 122.5 27.5t108.5 52.5l36 -50q-56 -40 -123.5 -65
t-137.5 -32q-13 -2 -26 -2.5t-26 -0.5q-80 0 -156.5 26.5t-137.5 82.5q-52 48 -78.5 114t-26.5 136q0 9 0.5 18.5t1.5 18.5q4 50 21 98t44 89q63 96 164 144t212 48q11 0 22.5 -0.5t22.5 -0.5q8 -1 16 -1.5t15 -1.5q120 -17 206 -94.5t89 -204.5v-11v-8.5t-1 -9.5
q-4 -66 -36.5 -127t-89.5 -98v0zM546 305q-4 30 -25.5 51.5t-52.5 21.5h-8q-39 -6 -63 -37.5t-35 -68.5q-4 -11 -6 -22t-4 -21q0 -2 -0.5 -4.5t-1.5 -4.5v-2v-1q-1 -7 -2 -13t-1 -11q0 -41 21.5 -62t46.5 -21q8 0 16 1.5t16 5.5q24 10 46 34t31 60l22 94v0z" />
    <glyph glyph-name="glyph36" unicode="A" horiz-adv-x="690" 
d="M19 0l240 637h156l246 -637h-154l-53 135h-245l-45 -135h-145v0zM246 241h177l-71 208q-4 15 -7.5 31.5t-6.5 32.5q-1 6 -2 11.5t-2 10.5l-8 -46t-10 -43l-70 -205v0z" />
    <glyph glyph-name="glyph37" unicode="B" horiz-adv-x="571" 
d="M84 0v637h128q18 0 36.5 -0.5t37.5 -1.5q73 -5 134.5 -34.5t68.5 -114.5v-18q0 -61 -38.5 -91.5t-95.5 -42.5q67 -12 112 -46t45 -105v-16q-7 -92 -74.5 -124.5t-146.5 -39.5q-28 -2 -54.5 -2.5t-50.5 -0.5h-102v0zM220 277v-170q3 0 7 -0.5t8 -0.5h2h3q2 -1 5 -1h5h11.5
t11.5 1q39 2 71.5 18t33.5 67l-2 2q0 50 -32.5 65.5t-70.5 17.5q-6 1 -11.5 1h-11.5h-30v0zM220 382h6h6q1 -1 1.5 -1h1.5h5h5h12.5t13.5 1q34 2 62.5 16t29.5 57v4q0 41 -28 55.5t-61 16.5q-6 1 -12 1h-12h-30v-150v0z" />
    <glyph glyph-name="glyph38" unicode="C" horiz-adv-x="660" 
d="M600 472q-41 34 -84.5 52.5t-92.5 18.5q-12 0 -25 -1t-26 -4q-4 0 -8.5 -1t-8.5 -2q-75 -17 -114.5 -78t-42.5 -130v-5.5v-5.5v-2v-1q1 -75 45.5 -138t129.5 -73q3 0 6.5 -0.5t6.5 -1.5q7 0 13.5 -0.5t12.5 -0.5q52 0 98.5 19.5t89.5 56.5l-2 -141q-28 -15 -58.5 -25
t-61.5 -16q-19 -3 -37.5 -5t-36.5 -2q-134 0 -239 87t-105 245q0 130 83 223t212 107q14 2 27 3t26 1q50 0 99.5 -12t97.5 -32l-5 -136v0z" />
    <glyph glyph-name="glyph39" unicode="D" horiz-adv-x="679" 
d="M78 0v637h186q67 0 131.5 -9.5t121.5 -52.5q53 -42 83 -107t33 -134q1 -5 1 -10v-10v-3.5v-3.5q-2 -72 -32 -139t-88 -110q-51 -35 -109.5 -45.5t-119.5 -12.5h-20.5h-21.5h-165v0zM214 522v-407q7 0 15 -0.5t17 -0.5h5.5h5.5q6 -1 12 -1h11q10 0 20 0.5t20 1.5
q30 2 59 10t50 24q33 26 49.5 70t17.5 91v2.5v3.5v3.5v3.5q-1 47 -17 90.5t-48 71.5q-23 20 -53 27.5t-62 8.5q-7 1 -14 1h-14h-74v0z" />
    <glyph glyph-name="glyph40" unicode="E" horiz-adv-x="520" 
d="M83 0v637h374v-115h-238v-130h238v-116h-238v-159h238v-117h-374v0z" />
    <glyph glyph-name="glyph41" unicode="F" horiz-adv-x="431" 
d="M83 0v637h374v-115h-238v-130h238v-116h-238v-276h-136v0z" />
    <glyph glyph-name="glyph42" unicode="G" horiz-adv-x="741" 
d="M400 335h290v-21q0 -87 -28 -163t-109 -123q-26 -17 -57 -26.5t-62 -13.5q-11 -1 -21.5 -1.5t-20.5 -0.5h-12t-12 1q-75 5 -145 42.5t-113 100.5q-21 34 -34 72.5t-17 77.5q-1 8 -1.5 16.5t-0.5 17.5q0 92 46.5 175.5t131.5 126.5q18 9 37 15t39 11q19 4 38 6t37 2h4.5
h4.5q73 -2 142 -35.5t119 -92.5l-90 -68q-37 38 -78.5 58.5t-88.5 20.5q-15 0 -31 -2t-33 -6q-69 -22 -104 -82.5t-35 -128.5q0 -5 0.5 -10.5t1.5 -10.5q0 -3 0.5 -5.5t0.5 -5.5q1 -2 1.5 -5t0.5 -5q12 -75 62.5 -117.5t109.5 -51.5q8 -2 17 -2.5t17 -0.5q56 0 100 31t44 89
l2 4h-153v111v0z" />
    <glyph glyph-name="glyph43" unicode="H" horiz-adv-x="700" 
d="M94 0v637h136v-256h276v256h136v-637h-136v267h-276v-267h-136v0z" />
    <glyph glyph-name="glyph44" unicode="I" horiz-adv-x="271" 
d="M79 0v637h137v-637h-137v0z" />
    <glyph glyph-name="glyph45" unicode="J" horiz-adv-x="400" 
d="M345 637v-430v-6v-6q-1 -75 -25.5 -137.5t-120.5 -69.5q-3 0 -7 -0.5t-8 -0.5t-8 -0.5t-7 -0.5q-62 0 -101.5 32.5t-51.5 96.5l97 47q1 -4 1.5 -8t1.5 -8q5 -17 15.5 -31.5t27.5 -14.5q2 0 4.5 0.5t4.5 0.5q2 1 4.5 1.5t4.5 1.5q20 6 24.5 20.5t5.5 32.5q1 14 1.5 27
t0.5 26v26.5v26.5v374h136v0z" />
    <glyph glyph-name="glyph46" unicode="K" horiz-adv-x="621" 
d="M73 0v637h136v-289l211 289h159l-229 -290l237 -347h-164l-214 334v-334h-136v0z" />
    <glyph glyph-name="glyph47" unicode="L" horiz-adv-x="470" 
d="M84 0v637h136v-520h218v-117h-354v0z" />
    <glyph glyph-name="glyph48" unicode="M" horiz-adv-x="859" 
d="M52 0l97 637h143l123 -374q6 -16 9 -33t6 -35q1 -5 1.5 -10t1.5 -10q2 23 5 45t9 44l125 373h143l95 -637h-128l-47 384q-4 27 -6.5 53.5t-2.5 51.5v4.5v5.5v1l1 1v6v5q-4 -27 -9.5 -53t-12.5 -52l-137 -407h-74l-135 407l-6 26t-6 27q-3 13 -5.5 26t-4.5 26
q0 -31 -2.5 -63t-5.5 -65l-47 -384h-130v0z" />
    <glyph glyph-name="glyph49" unicode="N" horiz-adv-x="731" 
d="M79 0v637h141l282 -370q4 -5 7.5 -11t7.5 -13l10 -18t9 -18q7 -14 12.5 -27t10.5 -24q-4 30 -6 61.5t-2 62.5v357h130v-637h-135l-288 378q-3 4 -6.5 9t-6.5 10q-6 10 -12 21.5t-12 23.5q-6 13 -11.5 25.5t-10.5 23.5q2 -16 3.5 -32t3.5 -32l2 -32t1 -32v-363h-130v0z
" />
    <glyph glyph-name="glyph50" unicode="O" horiz-adv-x="770" 
d="M84 475q47 85 128.5 130t171.5 45q11 0 22.5 -0.5t22.5 -2.5q38 -5 75.5 -18t70.5 -34q65 -43 104 -113t44 -145q1 -6 1 -12v-12q0 -10 -0.5 -20.5t-2.5 -20.5q-2 -21 -7.5 -41.5t-13.5 -40.5q-41 -97 -130 -150.5t-189 -53.5h-10t-10 1q-36 2 -70.5 11t-66.5 25
q-85 45 -132.5 125.5t-47.5 169.5q0 14 1.5 28.5t3.5 29.5q5 25 14 50.5t21 48.5v0zM569 235q8 20 11 40t3 41v5.5v5.5q-3 54 -29.5 104t-73.5 78q-14 8 -28.5 12.5t-29.5 7.5l-18 2t-18 1q-61 0 -112.5 -36t-74.5 -97q-4 -12 -7 -26t-5 -28q-1 -6 -1.5 -13t-0.5 -14v-4v-4
q2 -65 38 -122t100 -76q7 -2 14.5 -3.5t15.5 -3.5q7 -1 14.5 -2t14.5 -1q62 0 113.5 35.5t73.5 97.5v0z" />
    <glyph glyph-name="glyph51" unicode="P" horiz-adv-x="451" 
d="M78 0v637h155q12 0 23.5 -0.5t23.5 -0.5q46 -3 89 -17.5t72 -52.5q12 -17 20.5 -39.5t12.5 -45.5q2 -11 3 -22t1 -21v-6v-6q0 -6 -0.5 -12t-1.5 -12q-19 -102 -95 -130.5t-163 -28.5h-2h-2v-243h-136v0zM339 438v13q0 57 -37 71t-88 14v-188q50 0 86 14.5t39 75.5v0z" />
    <glyph glyph-name="glyph52" unicode="Q" horiz-adv-x="780" 
d="M721 -71h-136l-70 79q-35 -8 -68.5 -13t-65.5 -5q-19 0 -40 2t-43 7q-75 18 -136.5 68.5t-91.5 123.5q-5 13 -9.5 26.5t-7.5 27.5q-5 18 -7 36t-2 35q0 107 66 197.5t175 123.5q8 3 16.5 5t16.5 3q17 4 33.5 5.5t32.5 1.5q125 0 226 -84.5t113 -215.5v-8.5v-9.5v-1.5
t1 -1.5v-10v-10q0 -74 -31 -134.5t-88 -113.5l116 -134v0zM434 110l-90 106h132l46 -56q23 26 36 56t19 61q1 10 2 20.5t1 20.5q0 83 -53.5 148.5t-140.5 65.5q-10 0 -20.5 -0.5t-21.5 -2.5q-5 -1 -10.5 -2t-10.5 -3q-64 -20 -99 -75t-39 -117v-8v-8q0 -67 35.5 -125.5
t102.5 -78.5q5 -2 11 -3l12 -2q8 -2 15.5 -2.5t14.5 -0.5q8 0 17 0.5t18 2.5q6 0 11.5 1t11.5 2v0z" />
    <glyph glyph-name="glyph53" unicode="R" horiz-adv-x="571" 
d="M449 590q22 -20 35 -46t18 -53q1 -7 1.5 -14.5t0.5 -14.5v-4.5v-5.5q-3 -56 -40 -104.5t-99 -57.5l175 -290h-158l-166 298v-298h-137v637h195q12 0 25 -0.5t26 -0.5q34 -3 66 -12.5t58 -33.5v0zM216 366h8.5h9.5q4 -1 9 -1h10h9h9q36 2 66.5 16t33.5 57v11
q0 50 -33 65.5t-72 17.5q-7 1 -14 1h-14h-22v-167v0z" />
    <glyph glyph-name="glyph54" unicode="S" horiz-adv-x="551" 
d="M71 81l76 86q13 -28 42 -49t61 -27q6 -2 12 -2.5t12 -0.5q5 0 10 0.5t10 1.5q16 3 31 11.5t25 23.5q7 8 11.5 19.5t6.5 22.5v4v4v5.5t-1 4.5q-1 9 -4.5 17.5t-9.5 14.5q-8 9 -25 19.5t-37 21.5q-7 4 -13.5 7.5t-13.5 6.5q-23 12 -44.5 22.5t-34.5 18.5q-44 24 -73 63.5
t-31 91.5l-2 4q0 46 27 87t67 63q29 15 60.5 23t63.5 8h4h4q49 -2 95 -22.5t78 -61.5l-79 -78q-13 21 -37.5 36.5t-51.5 19.5q-4 0 -8.5 0.5t-8.5 0.5h-4.5h-4.5q-19 -2 -37 -12.5t-27 -31.5q-1 -2 -1.5 -4t-1.5 -4q-2 -7 -3.5 -13t-1.5 -11q0 -27 21.5 -46t47.5 -31
q8 -4 16.5 -7.5t15.5 -6.5l16 -6t16 -7q59 -27 107.5 -75t48.5 -115q0 -91 -69 -140t-152 -53h-7.5h-6.5q-58 0 -112 23.5t-83 72.5v0z" />
    <glyph glyph-name="glyph55" unicode="T" horiz-adv-x="481" 
d="M350 522v-522h-136v522h-156v115h449v-115h-157v0z" />
    <glyph glyph-name="glyph56" unicode="U" horiz-adv-x="669" 
d="M611 637v-396q0 -134 -72 -194.5t-205 -60.5q-131 0 -202.5 59.5t-71.5 195.5v396h136v-374q0 -70 31 -114.5t107 -44.5q74 0 107 44.5t34 114.5v374h136v0z" />
    <glyph glyph-name="glyph57" unicode="V" horiz-adv-x="630" 
d="M284 0l-234 637h149l124 -397q5 -17 9 -34.5t7 -35.5q1 -2 1.5 -4.5t0.5 -5.5q2 -10 4.5 -20t4.5 -20q2 17 5 35t7 36q3 14 6.5 27.5t7.5 26.5l125 392h149l-238 -637h-128v0z" />
    <glyph glyph-name="W" unicode="W" horiz-adv-x="900" 
d="M556 637l94 -345q11 -39 18.5 -78t13.5 -79q2 40 6.5 79t13.5 78l84 345h133l-165 -637h-132l-113 405q-4 15 -7.5 29.5t-5.5 29.5q-3 14 -5 28.5t-3 29.5q-1 -20 -3.5 -39.5t-5.5 -38.5q-2 -10 -4 -19.5t-5 -19.5l-115 -405h-130l-168 637h136l86 -353q6 -29 9.5 -59.5
t6.5 -61.5q0 -6 0.5 -12t1.5 -12q5 29 10 57.5t11 56.5q2 9 4.5 18.5t4.5 18.5l94 347h135v0z" />
    <glyph glyph-name="glyph59" unicode="X" horiz-adv-x="619" 
d="M285 470q9 -14 15.5 -29t12.5 -31q4 8 7.5 16t7.5 16q3 7 6.5 15t7.5 16l91 164h144l-191 -303l196 -334h-146l-96 177q-4 8 -7.5 17t-6.5 18q-4 8 -6.5 17t-5.5 17q-1 -3 -2 -5.5t-2 -5.5q-3 -7 -6 -14.5t-6 -14.5q-3 -8 -6.5 -16t-7.5 -15l-94 -175h-145l195 334
l-191 303h145l91 -167v0z" />
    <glyph glyph-name="glyph60" unicode="Y" horiz-adv-x="592" 
d="M264 0v290l-214 347h159l94 -173q6 -10 10 -20t7 -20q2 -6 4 -12.5t4 -13.5q1 -3 2 -6.5t2 -7.5q3 10 6.5 20t7.5 20t8.5 20t10.5 20l92 173h159l-214 -347v-290h-138v0z" />
    <glyph glyph-name="glyph61" unicode="Z" horiz-adv-x="650" 
d="M595 0h-535l331 528h-297v109h514l-329 -527h316v-110v0z" />
    <glyph glyph-name="glyph62" unicode="[" horiz-adv-x="361" 
d="M107 652h196v-101h-87v-643h87v-102h-196v846v0z" />
    <glyph glyph-name="glyph63" unicode="\" horiz-adv-x="540" 
d="M378 -81l-312 733h93l311 -733h-92v0z" />
    <glyph glyph-name="glyph64" unicode="]" horiz-adv-x="352" 
d="M251 652v-846h-196v102h88v643h-88v101h196v0z" />
    <glyph glyph-name="glyph65" unicode="^" horiz-adv-x="650" 
d="M267 635h111l209 -243h-102l-161 161l-164 -161h-102l209 243v0z" />
    <glyph glyph-name="glyph66" unicode="_" horiz-adv-x="451" 
d="M2 -120h445v-89h-445v89v0z" />
    <glyph glyph-name="glyph67" unicode="`" horiz-adv-x="381" 
d="M78 366l86 271h133l-135 -271h-84v0z" />
    <glyph glyph-name="glyph68" unicode="a" horiz-adv-x="561" 
d="M506 0h-120l1 62q-26 -39 -61.5 -57.5t-82.5 -18.5l-5 -1q-69 1 -117 45t-63 109q-1 5 -1.5 10t-1.5 10q-1 6 -1.5 12t-1.5 12q-1 7 -1.5 14.5t-0.5 14.5q0 8 0.5 16t0.5 16q6 63 38 118.5t97 71.5q5 1 10.5 2t10.5 2l16 2t15 1q45 0 84.5 -21.5t64.5 -62.5v71h119v-428
v0zM284 92l1 -1q48 0 75.5 36t30.5 79v5.5v5.5v2v2q-1 37 -18.5 69t-53.5 44q-3 1 -7 1.5t-7 1.5q-6 1 -11.5 1.5t-9.5 0.5q-45 0 -73 -34t-33 -75v-4.5v-5.5q-1 -1 -1 -2v-2v-3.5v-3.5v-1.5v-1.5q1 -43 26.5 -78.5t76.5 -35.5h4v0z" />
    <glyph glyph-name="glyph69" unicode="b" horiz-adv-x="559" 
d="M57 0v674h118v-243q0 -19 -1.5 -39t-3.5 -40q28 41 69.5 65t87.5 24q10 0 20.5 -1.5t21.5 -3.5q10 -3 20.5 -6.5t20.5 -8.5q49 -26 74 -78t28 -109v-7.5v-7.5v-5.5v-5.5q-3 -84 -52.5 -153t-138.5 -69l-2 -1q-49 1 -83 19.5t-61 57.5l2 -62h-120v0zM386 214
q0 58 -31 88.5t-69 33.5q-2 1 -4.5 1h-5.5q-40 0 -73.5 -30t-33.5 -91l1 -2q0 -51 26 -86.5t81 -35.5t82 35.5t27 86.5v0z" />
    <glyph glyph-name="glyph70" unicode="c" horiz-adv-x="451" 
d="M392 13q-14 -7 -29 -12t-30 -9q-15 -3 -30 -5t-29 -2q-90 0 -157.5 63t-67.5 166l1 5q2 104 70.5 163t156.5 59q14 0 28.5 -1.5t29.5 -4.5q14 -3 28.5 -8t28.5 -12v-125q-15 14 -34.5 23.5t-40.5 12.5q-7 2 -14.5 2.5t-14.5 0.5q-43 0 -78 -27t-35 -80q0 -1 0.5 -1.5
l0.5 -0.5q0 -1 0.5 -1.5t0.5 -1.5q1 -45 25 -78.5t70 -39.5h3.5t3.5 -1h2h2q3 0 5.5 -0.5t4.5 -0.5q29 0 54.5 12t44.5 34v-130v0z" />
    <glyph glyph-name="glyph71" unicode="d" horiz-adv-x="561" 
d="M506 0h-120l1 62q-25 -39 -61 -57.5t-83 -18.5q-72 0 -120.5 43t-64.5 110q-1 5 -1.5 10t-1.5 10q-1 6 -1.5 12t-1.5 12q-1 7 -1.5 14.5t-0.5 14.5q0 8 0.5 16t0.5 16q6 63 38 118.5t97 71.5q16 4 31 6t28 2q46 0 81.5 -23t65.5 -67q-2 20 -3.5 40t-1.5 39v243h119v-674
v0zM178 230v-4.5v-5.5q-1 -1 -1 -2v-2v-3.5v-3.5v-2.5v-3.5q2 -42 27.5 -77t75.5 -35l4 1l1 -1q46 0 73.5 34.5t31.5 76.5q1 4 1 7.5v7.5v6v5q-3 34 -20.5 64.5t-51.5 41.5q-3 1 -7 1.5t-7 1.5q-6 1 -11.5 1.5t-9.5 0.5q-45 0 -73 -34t-33 -75v0z" />
    <glyph glyph-name="glyph72" unicode="e" horiz-adv-x="549" 
d="M493 183h-321q10 -40 29 -63.5t62 -27.5h4h4h0.5h1.5q2 -1 4.5 -1h4.5q29 0 53 13.5t41 38.5l100 -49q-38 -57 -88 -82.5t-119 -25.5l-13 -1q-97 5 -152 69.5t-55 152.5q0 8 0.5 15.5t1.5 15.5q1 5 1.5 10t0.5 10q15 85 79.5 134t143.5 49q11 0 23.5 -1t24.5 -4
q10 -1 20 -4t19 -6q77 -28 103.5 -88t26.5 -131v-24v0zM274 339q-43 0 -66 -21t-31 -60h193q-7 40 -29.5 60.5t-66.5 20.5v0z" />
    <glyph glyph-name="glyph73" unicode="f" horiz-adv-x="331" 
d="M78 0v331h-57v97h57v96q0 50 15 89t66 58q10 3 20.5 6t21.5 4q8 2 16 2.5t16 0.5q9 0 18 -1l18 -2q9 -2 18 -3.5t18 -3.5v-99q-6 3 -14 6t-16 4q-5 1 -10 1.5t-9 0.5h-2.5h-3.5q-10 -1 -19 -5t-15 -11q-10 -12 -14.5 -28.5t-5.5 -34.5v-3.5v-3.5v-7.5v-6.5q1 -7 1.5 -13
t1.5 -12q0 -10 1 -18.5t1 -15.5h79v-97h-79v-331h-123v0z" />
    <glyph glyph-name="glyph74" unicode="g" horiz-adv-x="561" 
d="M392 428h117v-422q0 -41 -6 -80.5t-43 -70.5q-28 -24 -63 -34t-72 -12q-8 -1 -16 -1h-16q-11 0 -22.5 0.5t-23.5 1.5q-59 6 -110 34.5t-56 98.5l135 -1q4 -24 25 -35.5t45 -12.5h2.5h3.5q5 0 10.5 0.5t11.5 1.5q7 1 13.5 2t11.5 3q32 13 42 42t11 61v6v6v49
q-26 -37 -61 -56t-81 -19q-73 0 -122 41.5t-65 111.5q-3 13 -5 28t-3 30v7.5v7.5v10.5t1 10.5q4 65 36 122.5t99 74.5q6 2 12 2.5t13 1.5q6 1 12 1h12q45 0 86 -20.5t66 -61.5v71v0zM397 214q0 57 -31 88t-69 34q-2 1 -4.5 1h-5.5h-1.5h-1.5q-37 -1 -68 -28.5t-33 -81.5v-4
v-4q-1 -2 -1 -4v-4q0 -48 27.5 -82.5t78.5 -34.5q55 0 82 34.5t27 85.5v0z" />
    <glyph glyph-name="glyph75" unicode="h" horiz-adv-x="540" 
d="M57 0v674h121v-240q0 -18 -2 -37.5t-4 -39.5q35 35 77.5 60t90.5 25q15 0 31.5 -2.5t32.5 -8.5q57 -20 71 -64.5t14 -95.5v-271h-123v211v2.5v3.5q0 46 -11.5 84t-66.5 38h-14q-52 -4 -71 -40t-22 -79q0 -8 -0.5 -16t-0.5 -16v-188h-123v0z" />
    <glyph glyph-name="glyph76" unicode="i" horiz-adv-x="241" 
d="M57 0v428h123v-428h-123v0zM115 671h2.5h2.5q27 -2 49 -20t22 -53t-22 -53t-49 -20h-2.5h-2.5q-28 0 -51 18t-23 55t23 55t51 18v0z" />
    <glyph glyph-name="glyph77" unicode="j" horiz-adv-x="241" 
d="M57 -193v621h123v-621h-123v0zM44 598q0 29 18 53.5t55 24.5q32 0 49 -21.5t19 -46.5q1 -3 1 -5.5v-4.5v-2.5v-2.5q-2 -27 -18.5 -49t-50.5 -22q-37 0 -55 23.5t-18 52.5v0z" />
    <glyph glyph-name="glyph78" unicode="k" horiz-adv-x="540" 
d="M57 674h123v-436l159 190h149l-172 -190l188 -238h-152l-172 227v-227h-123v674v0z" />
    <glyph glyph-name="glyph79" unicode="l" horiz-adv-x="232" 
d="M57 0v674h123v-674h-123v0z" />
    <glyph glyph-name="glyph80" unicode="m" horiz-adv-x="799" 
d="M170 0h-125v428h125v-68q29 38 63.5 59.5t79.5 21.5h16.5t17.5 -2q38 -6 63 -29t36 -58q28 40 67 64.5t87 24.5h7h8t8 -0.5t7 -1.5q59 -8 81 -50t26 -91q1 -12 1.5 -24t0.5 -24v-250h-125v224v12.5v12.5q-2 34 -14.5 62.5t-54.5 28.5h-5q-46 0 -64 -32.5t-22 -72.5
q-1 -12 -1.5 -24t-0.5 -23v-188h-123v211v19.5t-1 20.5q-3 33 -16 60.5t-49 27.5h-12q-42 -5 -58.5 -37t-20.5 -69q-1 -12 -1.5 -23t-0.5 -22v-188v0z" />
    <glyph glyph-name="glyph81" unicode="n" horiz-adv-x="549" 
d="M57 0v428h121v-68q32 35 74 58.5t88 23.5q8 0 16 -0.5t16 -2.5q8 -1 16.5 -3t15.5 -5q57 -20 71 -64.5t14 -95.5v-271h-123v211v2.5v3.5q0 46 -11.5 84t-66.5 38h-14q-52 -4 -71 -40t-22 -79q0 -8 -0.5 -16t-0.5 -16v-188h-123v0z" />
    <glyph glyph-name="glyph82" unicode="o" horiz-adv-x="580" 
d="M527 212q0 -102 -71 -163t-169 -61l-23 -1q-92 7 -153.5 73t-61.5 154v7.5t1 7.5q0 3 0.5 6t0.5 6q1 5 1.5 9.5t0.5 8.5q19 90 85.5 135.5t142.5 46.5h2h2h2.5h3.5q88 -2 162 -60.5t74 -168.5v0zM175 216q0 -38 28 -67.5t61 -38.5l12 -2t12 -1q44 0 80 32.5t36 76.5v1.5
v1.5q-1 41 -37 75.5t-79 34.5h-1.5h-1.5q-40 -1 -74.5 -35.5t-35.5 -74.5v-1.5v-1.5v0z" />
    <glyph glyph-name="glyph83" unicode="p" horiz-adv-x="559" 
d="M57 -193v621h118v-71q26 40 66 62.5t85 22.5q9 0 18.5 -1t19.5 -3q12 -3 23.5 -7.5t22.5 -9.5q49 -26 74 -78t28 -109v-7.5v-7.5v-5.5v-5.5q-3 -84 -52.5 -153t-138.5 -69l-2 -1q-49 1 -83 19.5t-61 57.5q4 -19 4.5 -38.5t0.5 -37.5v-179h-123v0zM277 92q55 0 82 35.5
t27 86.5q0 58 -31 88.5t-69 33.5q-2 1 -4.5 1h-5.5q-40 0 -73.5 -30t-33.5 -91l1 -2q0 -51 26 -86.5t81 -35.5v0z" />
    <glyph glyph-name="glyph84" unicode="q" horiz-adv-x="561" 
d="M506 -193h-124v178q0 19 0.5 38.5t4.5 38.5q-26 -39 -61.5 -57.5t-82.5 -18.5l-5 -1q-69 1 -117 45t-63 109q-1 5 -1.5 10t-1.5 10q-1 6 -1.5 12t-1.5 12q-1 7 -1.5 14.5t-0.5 14.5q0 8 0.5 16t0.5 16q6 63 38 118.5t97 71.5q5 1 10.5 2t10.5 2l16 2t15 1
q45 0 84.5 -21.5t64.5 -62.5v71h119v-621v0zM178 230v-4.5v-5.5q-1 -1 -1 -2v-2v-3.5v-3.5v-2.5v-3.5q2 -42 27.5 -77t75.5 -35l4 1l1 -1q46 0 73.5 34.5t31.5 76.5q1 4 1 7.5v7.5v6v5q-3 34 -20.5 64.5t-51.5 41.5q-3 1 -7 1.5t-7 1.5q-6 1 -11.5 1.5t-9.5 0.5
q-45 0 -73 -34t-33 -75v0z" />
    <glyph glyph-name="glyph85" unicode="r" horiz-adv-x="381" 
d="M170 316q22 62 55 92.5t86 30.5q7 0 15.5 -0.5t17.5 -1.5q4 0 7.5 -0.5t6.5 -0.5l-19 -133q-15 5 -30.5 7.5t-31.5 2.5h-21q-51 -7 -66 -44t-15 -81v-188h-123v428h123l-5 -112v0z" />
    <glyph glyph-name="glyph86" unicode="s" horiz-adv-x="460" 
d="M55 75l96 50q4 -25 25.5 -40t46.5 -17h2.5h3.5q4 0 8 0.5t8 1.5q8 1 15 3.5t12 5.5q10 5 15 14t5 19q0 2 -0.5 4.5t-0.5 5.5q-1 2 -1.5 4.5t-1.5 4.5q-5 11 -21.5 19.5t-35.5 14.5q-14 6 -27.5 10t-21.5 7q-2 1 -3.5 1.5t-3.5 1.5q-36 14 -68 38.5t-39 66.5q0 2 -0.5 4
t-0.5 4q0 1 -0.5 3t-0.5 4q0 39 25 72t61 48q14 6 29.5 10t31.5 5q7 1 14 1.5t14 0.5q6 0 11.5 -0.5t10.5 -0.5q44 -5 83.5 -26t60.5 -60l-91 -45q-7 20 -25.5 32.5t-39.5 14.5q-2 1 -4.5 1h-5.5q-4 0 -8.5 -0.5t-8.5 -1.5q-7 -2 -13.5 -4.5t-12.5 -6.5q-4 -3 -7.5 -8.5
t-5.5 -10.5q-1 -3 -1.5 -5.5t-0.5 -4.5t0.5 -4t0.5 -4q2 -5 4.5 -9t4.5 -7q9 -10 28 -18t40 -15q15 -4 29 -8.5t24 -8.5q3 -1 5 -2l4 -2q37 -15 58 -45.5t26 -63.5q0 -4 0.5 -8.5t0.5 -8.5q0 -31 -16.5 -60t-51.5 -47q-16 -6 -36.5 -10.5t-42.5 -6.5q-8 -1 -16 -1.5
t-16 -0.5h-2.5h-2.5q-53 1 -100.5 21t-68.5 68v0z" />
    <glyph glyph-name="glyph87" unicode="t" horiz-adv-x="311" 
d="M94 0v331h-62v97h62v141h123v-141h59v-97h-59v-331h-123v0z" />
    <glyph glyph-name="glyph88" unicode="u" horiz-adv-x="549" 
d="M178 428v-225q2 -51 20.5 -77.5t73.5 -28.5q54 2 73.5 28.5t19.5 77.5v225h124v-225q0 -109 -53 -163t-164 -54q-9 0 -18.5 0.5t-19.5 1.5q-31 3 -61 12t-55 28q-42 35 -52.5 79.5t-10.5 95.5v225h123v0z" />
    <glyph glyph-name="glyph89" unicode="v" horiz-adv-x="522" 
d="M198 0l-172 428h141l73 -222q8 -23 12.5 -47t8.5 -49q1 12 3 25t5 26q3 12 6 25t7 25l75 217h139l-175 -428h-123v0z" />
    <glyph glyph-name="glyph90" unicode="w" horiz-adv-x="801" 
d="M468 428l60 -222q5 -17 8 -35.5t6 -36.5q1 -5 1.5 -9.5t1.5 -9.5q5 23 11 46t13 45l66 222h135l-148 -428h-131l-65 220q-8 26 -14.5 51.5t-12.5 52.5q-4 -27 -9.5 -51.5t-13.5 -48.5l-65 -224h-131l-148 428h135l65 -214l2 -8t3 -8q5 -20 10.5 -41t8.5 -42
q4 26 8.5 50.5t11.5 48.5l56 214h136v0z" />
    <glyph glyph-name="glyph91" unicode="x" horiz-adv-x="522" 
d="M175 0h-146l151 217l-143 211h154l42 -80q7 -12 11.5 -24t8.5 -25q2 -4 3.5 -8.5t2.5 -8.5q5 18 12.5 34t15.5 32l47 80h146l-146 -209l154 -219h-154l-50 88q-6 11 -11.5 24t-10.5 27q-1 3 -2 6.5t-2 6.5q-2 -5 -4 -11t-4 -11q-4 -11 -9.5 -22t-11.5 -22l-54 -86v0z" />
    <glyph glyph-name="glyph92" unicode="y" horiz-adv-x="522" 
d="M198 32l-170 396h141l74 -196q8 -23 12.5 -47t7.5 -49q2 13 5 25.5t7 25.5q3 12 7 24.5t8 25.5l65 191h141l-255 -621h-137l94 225v0z" />
    <glyph glyph-name="glyph93" unicode="z" horiz-adv-x="511" 
d="M455 0h-408l225 331h-199v97h387l-223 -331h218v-97v0z" />
    <glyph glyph-name="glyph94" unicode="{" horiz-adv-x="460" 
d="M405 642v-89q-53 0 -73.5 -14t-20.5 -74v-104q0 -57 -16 -86t-75 -43q59 -16 75 -44.5t16 -85.5v-104q0 -55 16.5 -70t61.5 -15l16 -1v-90h-37q-8 1 -17 1t-18 1q-17 1 -34 3.5t-33 9.5q-45 17 -52.5 54.5t-7.5 78.5v106q0 65 -25 87t-82 22h-8v92h2.5h3.5q0 -1 0.5 -1
h1.5h2.5h2.5q53 0 77.5 24.5t24.5 85.5v108v2.5v2.5q0 40 8 76.5t52 53.5q17 7 36.5 9.5t39.5 3.5h6.5h6.5h50v0z" />
    <glyph glyph-name="glyph95" unicode="|" horiz-adv-x="241" 
d="M71 681h89v-890h-89v890v0z" />
    <glyph glyph-name="glyph96" unicode="}" horiz-adv-x="460" 
d="M58 642h42h16t16 -1q22 -1 43 -5.5t39 -14.5q27 -16 35.5 -42.5t9.5 -55.5v-14.5v-14.5v-110q0 -59 23 -83.5t78 -24.5h3t4 1h4h3v-92h-9q-58 0 -82 -22t-24 -87v-107q0 -48 -10.5 -85t-65.5 -53q-11 -3 -23.5 -5t-25.5 -2q-8 -1 -15.5 -1h-14.5l-46 -1v90h15q45 1 63 16
t18 71v101q0 59 16 87.5t73 44.5q-57 14 -73 43t-16 86v106q-1 59 -20.5 72.5t-75.5 13.5v89v0z" />
    <glyph glyph-name="glyph97" unicode="~" horiz-adv-x="669" 
d="M627 348v-95q-47 -31 -85.5 -45.5t-74.5 -14.5q-29 0 -61.5 9t-73.5 22q-36 12 -66.5 19t-56.5 7q-12 0 -23 -1.5t-23 -4.5q-27 -7 -56.5 -22.5t-67.5 -39.5v95q37 23 69 37.5t64 20.5q10 2 20.5 3t21.5 1q27 0 58 -6t65 -19q41 -14 73 -23t58 -9q35 0 72.5 16t86.5 50v0
z" />
    <glyph glyph-name="uni007F" 
 />
    <glyph glyph-name="F" 
 />
    <glyph glyph-name="F" unicode="&#x402;" 
 />
    <glyph glyph-name="uni0081" 
 />
    <glyph glyph-name="uni0081" unicode="&#x403;" 
 />
    <glyph glyph-name="D" 
 />
    <glyph glyph-name="D" unicode="&#x40c;" 
 />
    <glyph glyph-name="N" 
 />
    <glyph glyph-name="N" unicode="&#x40b;" 
 />
    <glyph glyph-name="bullet" 
 />
    <glyph glyph-name="bullet" unicode="&#x40f;" 
 />
    <glyph glyph-name="guilsinglleft" 
 />
    <glyph glyph-name="guilsinglleft" unicode="&#x452;" 
 />
    <glyph glyph-name="Ydieresis" 
 />
    <glyph glyph-name="Ydieresis" unicode="&#x45c;" 
 />
    <glyph glyph-name="tilde" 
 />
    <glyph glyph-name="tilde" unicode="&#x45b;" 
 />
    <glyph glyph-name="uni00A0" unicode="&#xa0;" 
 />
    <glyph glyph-name="Z" unicode="&#xa1;" 
 />
    <glyph glyph-name="Z" unicode="&#x40e;" 
 />
    <glyph glyph-name="cent" unicode="&#xa2;" 
 />
    <glyph glyph-name="cent" unicode="&#x45e;" 
 />
    <glyph glyph-name="endash" unicode="&#xa3;" 
 />
    <glyph glyph-name="endash" unicode="&#x408;" 
 />
    <glyph glyph-name="currency" unicode="&#xa4;" 
 />
    <glyph glyph-name="emdash" unicode="&#xa5;" 
 />
    <glyph glyph-name="emdash" unicode="&#x490;" 
 />
    <glyph glyph-name="circumflex" unicode="&#xa6;" 
 />
    <glyph glyph-name="scaron" unicode="&#xa7;" horiz-adv-x="551" 
d="M152 379q-27 19 -42 45t-18 53v4.5v4.5v4v4q4 53 48.5 97t118.5 44q102 0 147.5 -46.5t45.5 -129.5h-128q0 3 0.5 6t0.5 6t0.5 5.5t0.5 4.5q0 31 -17 44.5t-37 14.5h-1.5h-1.5h-1.5h-1.5q-19 -1 -34.5 -12t-15.5 -30q0 -37 31 -59t72 -41q6 -3 12.5 -6t13.5 -6
q45 -21 84 -49.5t44 -80.5v-15q0 -47 -26.5 -79.5t-65.5 -49.5q34 -13 54 -48t20 -73q0 -4 -0.5 -8.5t-0.5 -8.5q-6 -45 -47 -82.5t-125 -37.5l-10 -1q-97 1 -133 40.5t-41 86.5q-1 7 -1.5 14t-0.5 14h128q0 -1 -0.5 -2t-0.5 -2t-0.5 -2t-0.5 -2q0 -28 15 -43.5t34 -17.5
h2.5h2.5q3 0 6 0.5t5 0.5q16 4 29.5 16.5t14.5 33.5v4q0 29 -26 51t-62 43q-9 5 -18.5 10t-18.5 11q-46 26 -84.5 57t-40.5 77q0 2 -0.5 4t-0.5 4q0 1 -0.5 3t-0.5 4q0 34 17 61.5t38 45.5q5 4 9.5 7.5t8.5 6.5v0zM238 327q-18 -9 -29 -23.5t-13 -30.5v-3.5v-2.5q0 -6 2 -12
t5 -12q2 -7 6 -14.5t11 -14.5q12 -14 33 -27.5t48 -22.5q7 4 12.5 8t10.5 9q15 12 21.5 24.5t6.5 23.5q0 29 -34.5 54.5t-79.5 43.5v0z" />
    <glyph glyph-name="H" unicode="&#xa8;" 
 />
    <glyph glyph-name="H" unicode="&#x401;" 
 />
    <glyph glyph-name="I" unicode="&#xa9;" horiz-adv-x="749" 
d="M50 288v3v2q-1 2 -1 3v2q0 111 72.5 180t159.5 92q22 6 43.5 9t41.5 3h12q126 0 221 -87.5t95 -206.5q0 -112 -98 -201t-226 -89q-127 0 -221 82t-99 208v0zM366 527q-104 0 -176.5 -70t-72.5 -169q3 -87 51 -140.5t106 -77.5q26 -11 50.5 -16t45.5 -5q109 0 186.5 70
t77.5 169q0 109 -80.5 174t-187.5 65v0zM280 288q3 -50 29 -77.5t58 -33.5q4 -1 9 -1.5t10 -0.5q29 0 52.5 17t23.5 48h66q0 -50 -43 -82t-103 -32q-74 0 -118 42t-55 93q0 3 -1 7t-1 8v2.5v3.5q-1 1 -1 2.5v2.5q0 70 37.5 110t82.5 55q14 5 28.5 7.5t27.5 2.5q56 0 101 -32
t45 -83h-66q-4 28 -28 44t-53 17h-1.5h-1.5h-6t-6 -1q-33 -4 -60 -30.5t-27 -75.5v-2.5t1 -3.5v-3v-4v0z" />
    <glyph glyph-name="J" unicode="&#xaa;" 
 />
    <glyph glyph-name="J" unicode="&#x404;" 
 />
    <glyph glyph-name="ampersand" unicode="&#xab;" horiz-adv-x="441" 
d="M45 282l120 196l78 -39l-99 -157l99 -164l-78 -32l-120 196v0zM323 478l79 -39l-101 -157l101 -164l-79 -32l-122 196l122 196v0z" />
    <glyph glyph-name="quotesingle" unicode="&#xac;" 
 />
    <glyph glyph-name="daggerdbl" unicode="&#xad;" 
 />
    <glyph glyph-name="dagger" unicode="&#xae;" horiz-adv-x="749" 
d="M49 288q0 2 -0.5 3t-0.5 2q0 2 -0.5 3t-0.5 2q0 112 72.5 181.5t159.5 93.5q22 6 44 9t43 3h12q126 0 221 -89t95 -208q0 -112 -98 -201t-226 -89t-222 82t-99 208v0zM366 530q-104 0 -177.5 -71t-73.5 -171q4 -87 52.5 -140.5t105.5 -77.5q26 -11 51 -16t46 -5
q110 0 187.5 70t77.5 169q0 110 -81 176t-188 66v0zM241 452h187q67 0 94 -25t27 -72q0 -45 -23.5 -65t-68.5 -24l84 -140h-84l-81 140h-63v-140h-72v326v0zM313 404v-91h115q27 0 40 14t13 30v3.5t-1 3.5q-2 15 -15.5 27.5t-36.5 12.5h-115v0z" />
    <glyph glyph-name="macron" unicode="&#xaf;" 
 />
    <glyph glyph-name="macron" unicode="&#x407;" 
 />
    <glyph glyph-name="degree" unicode="&#xb0;" horiz-adv-x="379" 
d="M92 543q0 41 28.5 62.5t62.5 23.5h4h4h4h4q35 -2 64 -23.5t29 -62.5v-8q0 -42 -27.5 -64.5t-60.5 -26.5h-4.5h-5.5h-2.5h-3.5q-36 2 -66 27t-30 72v0zM233 543q0 17 -13 25.5t-29 8.5t-29 -8.5t-13 -25.5q0 -19 13 -29t29 -10t29 10t13 29v0z" />
    <glyph glyph-name="at" unicode="&#xb1;" 
 />
    <glyph glyph-name="P" unicode="&#xb2;" 
 />
    <glyph glyph-name="P" unicode="&#x406;" 
 />
    <glyph glyph-name="S" unicode="&#xb3;" 
 />
    <glyph glyph-name="S" unicode="&#x456;" 
 />
    <glyph glyph-name="T" unicode="&#xb4;" 
 />
    <glyph glyph-name="T" unicode="&#x491;" 
 />
    <glyph glyph-name="U" unicode="&#xb5;" 
 />
    <glyph glyph-name="V" unicode="&#xb6;" horiz-adv-x="571" 
d="M193 -83v423h-2.5h-2.5q-2 -1 -3.5 -1h-2.5q-61 0 -95.5 44t-36.5 96v3.5v2.5v2.5v3.5q2 52 37.5 95t105.5 43h324v-99h-37v-613h-115v613h-57v-613h-115v0z" />
    <glyph glyph-name="quoteleft" unicode="&#xb8;" 
 />
    <glyph glyph-name="quoteleft" unicode="&#x451;" 
 />
    <glyph glyph-name="one" unicode="&#xb9;" 
 />
    <glyph glyph-name="one" unicode="&#x2116;" 
 />
    <glyph glyph-name="G" unicode="&#xba;" 
 />
    <glyph glyph-name="G" unicode="&#x454;" 
 />
    <glyph glyph-name="bracketleft" unicode="&#xbb;" 
 />
    <glyph glyph-name="w" unicode="&#xbc;" 
 />
    <glyph glyph-name="w" unicode="&#x458;" 
 />
    <glyph glyph-name="bracketright" unicode="&#xbd;" 
 />
    <glyph glyph-name="bracketright" unicode="&#x405;" 
 />
    <glyph glyph-name="R" unicode="&#xbe;" 
 />
    <glyph glyph-name="R" unicode="&#x455;" 
 />
    <glyph glyph-name="underscore" unicode="&#xbf;" 
 />
    <glyph glyph-name="underscore" unicode="&#x457;" 
 />
    <glyph glyph-name="grave" unicode="&#xc0;" horiz-adv-x="690" 
d="M19 0l240 637h156l246 -637h-154l-53 135h-245l-45 -135h-145v0zM246 241h177l-71 208q-4 15 -7.5 31.5t-6.5 32.5q-1 6 -2 11.5t-2 10.5l-8 -46t-10 -43l-70 -205v0z" />
    <glyph glyph-name="grave" unicode="&#x410;" horiz-adv-x="690" 
d="M19 0l240 637h156l246 -637h-154l-53 135h-245l-45 -135h-145v0zM246 241h177l-71 208q-4 15 -7.5 31.5t-6.5 32.5q-1 6 -2 11.5t-2 10.5l-8 -46t-10 -43l-70 -205v0z" />
    <glyph glyph-name="a" unicode="&#xc1;" horiz-adv-x="559" 
d="M73 637h374v-115h-238v-140h62q28 0 59 -3t64 -13q50 -21 74 -60t30 -82q2 -9 2.5 -19t0.5 -19v-19q-7 -91 -74 -124t-146 -40q-27 -2 -54 -2.5t-52 -0.5h-102v637v0zM366 191l-1 2q0 50 -33 66t-73 18h-10.5h-10.5h-29v-170q3 0 6.5 -0.5t7.5 -0.5h1.5h0.5q4 -1 7 -1h6
h10.5h10.5q40 2 73 18t34 68v0z" />
    <glyph glyph-name="a" unicode="&#x411;" horiz-adv-x="559" 
d="M73 637h374v-115h-238v-140h62q28 0 59 -3t64 -13q50 -21 74 -60t30 -82q2 -9 2.5 -19t0.5 -19v-19q-7 -91 -74 -124t-146 -40q-27 -2 -54 -2.5t-52 -0.5h-102v637v0zM366 191l-1 2q0 50 -33 66t-73 18h-10.5h-10.5h-29v-170q3 0 6.5 -0.5t7.5 -0.5h1.5h0.5q4 -1 7 -1h6
h10.5h10.5q40 2 73 18t34 68v0z" />
    <glyph glyph-name="b" unicode="&#xc2;" horiz-adv-x="571" 
d="M84 0v637h89q20 2 39 2h36q114 0 172.5 -35.5t68.5 -117.5v-18q0 -61 -38.5 -91.5t-95.5 -42.5q67 -12 112 -46t45 -105v-16q-12 -86 -67 -126.5t-207 -40.5h-154v0zM220 277v-170q3 0 7 -0.5t8 -0.5h2h3q2 -1 5 -1h5h11.5t11.5 1q39 2 71.5 18t33.5 67l-2 2
q0 50 -32.5 65.5t-70.5 17.5q-6 1 -11.5 1h-11.5h-30v0zM220 382h6h6q1 -1 1.5 -1h1.5h5h5h12.5t13.5 1q34 2 62.5 16t29.5 57v4q0 41 -28 55.5t-61 16.5q-6 1 -12 1h-12h-30v-150v0z" />
    <glyph glyph-name="b" unicode="&#x412;" horiz-adv-x="571" 
d="M84 0v637h89q20 2 39 2h36q114 0 172.5 -35.5t68.5 -117.5v-18q0 -61 -38.5 -91.5t-95.5 -42.5q67 -12 112 -46t45 -105v-16q-12 -86 -67 -126.5t-207 -40.5h-154v0zM220 277v-170q3 0 7 -0.5t8 -0.5h2h3q2 -1 5 -1h5h11.5t11.5 1q39 2 71.5 18t33.5 67l-2 2
q0 50 -32.5 65.5t-70.5 17.5q-6 1 -11.5 1h-11.5h-30v0zM220 382h6h6q1 -1 1.5 -1h1.5h5h5h12.5t13.5 1q34 2 62.5 16t29.5 57v4q0 41 -28 55.5t-61 16.5q-6 1 -12 1h-12h-30v-150v0z" />
    <glyph glyph-name="c" unicode="&#xc3;" horiz-adv-x="420" 
d="M83 0v637h374v-115h-238v-522h-136v0z" />
    <glyph glyph-name="c" unicode="&#x413;" horiz-adv-x="420" 
d="M83 0v637h374v-115h-238v-522h-136v0z" />
    <glyph glyph-name="d" unicode="&#xc4;" horiz-adv-x="741" 
d="M632 118h67v-257h-137v139h-384v-139h-136v257h42l4.5 4.5t5.5 4.5q7 9 14.5 21t13.5 25q3 7 6 13.5t5 12.5q14 30 22.5 87t13.5 119q6 87 7.5 159t1.5 73h454v-519v0zM496 118v396h-186l-3 -55t-11 -122q-5 -47 -12 -90.5t-17 -66.5l-4.5 -10t-11.5 -21q-4 -7 -8.5 -13
t-8.5 -11q-2 -2 -5 -4t-5 -3h272v0z" />
    <glyph glyph-name="d" unicode="&#x414;" horiz-adv-x="741" 
d="M632 118h67v-257h-137v139h-384v-139h-136v257h42l4.5 4.5t5.5 4.5q7 9 14.5 21t13.5 25q3 7 6 13.5t5 12.5q14 30 22.5 87t13.5 119q6 87 7.5 159t1.5 73h454v-519v0zM496 118v396h-186l-3 -55t-11 -122q-5 -47 -12 -90.5t-17 -66.5l-4.5 -10t-11.5 -21q-4 -7 -8.5 -13
t-8.5 -11q-2 -2 -5 -4t-5 -3h272v0z" />
    <glyph glyph-name="e" unicode="&#xc5;" horiz-adv-x="511" 
d="M83 0v637h374v-115h-238v-130h238v-116h-238v-159h238v-117h-374v0z" />
    <glyph glyph-name="e" unicode="&#x415;" horiz-adv-x="511" 
d="M83 0v637h374v-115h-238v-130h238v-116h-238v-159h238v-117h-374v0z" />
    <glyph glyph-name="f" unicode="&#xc6;" horiz-adv-x="849" 
d="M361 2v329l-176 -329l-143 -2l178 342l-176 295h146l171 -292v292h135v-292l172 292h146l-177 -295l178 -342l-142 2l-177 329v-329h-135v0z" />
    <glyph glyph-name="f" unicode="&#x416;" horiz-adv-x="849" 
d="M361 2v329l-176 -329l-143 -2l178 342l-176 295h146l171 -292v292h135v-292l172 292h146l-177 -295l178 -342l-142 2l-177 329v-329h-135v0z" />
    <glyph glyph-name="g" unicode="&#xc7;" horiz-adv-x="640" 
d="M515 41q-36 -28 -86 -41.5t-102 -14.5h-4.5h-4.5h-12t-13 1q-67 3 -130 26t-103 66l70 104q26 -35 75.5 -57.5t104.5 -22.5q3 0 7 0.5t9 1.5h0.5h1.5q4 0 7.5 0.5t6.5 0.5q50 4 79 26.5t30 59.5l-2 2q0 44 -33.5 61t-73.5 20q-11 1 -21.5 1.5t-20.5 0.5h-37v108
q3 0 7 -0.5t8 -0.5h3.5t3.5 -1h5.5h4.5q10 0 20.5 0.5t21.5 1.5q36 4 67 19t34 52q0 33 -25.5 52t-72.5 25h-17q-39 0 -67.5 -10.5t-46.5 -22.5q-19 -13 -28 -23.5l-9 -10.5l-89 84q38 39 103 71t162 32h13q12 -1 24 -3.5t25 -5.5q55 -16 101.5 -54.5t50.5 -102.5v-21
q0 -57 -35 -87t-91 -41q71 -13 109.5 -51.5t39.5 -118.5q-3 -31 -10.5 -52.5t-24.5 -41.5q-7 -8 -15.5 -16t-19.5 -16v0z" />
    <glyph glyph-name="g" unicode="&#x417;" horiz-adv-x="640" 
d="M515 41q-36 -28 -86 -41.5t-102 -14.5h-4.5h-4.5h-12t-13 1q-67 3 -130 26t-103 66l70 104q26 -35 75.5 -57.5t104.5 -22.5q3 0 7 0.5t9 1.5h0.5h1.5q4 0 7.5 0.5t6.5 0.5q50 4 79 26.5t30 59.5l-2 2q0 44 -33.5 61t-73.5 20q-11 1 -21.5 1.5t-20.5 0.5h-37v108
q3 0 7 -0.5t8 -0.5h3.5t3.5 -1h5.5h4.5q10 0 20.5 0.5t21.5 1.5q36 4 67 19t34 52q0 33 -25.5 52t-72.5 25h-17q-39 0 -67.5 -10.5t-46.5 -22.5q-19 -13 -28 -23.5l-9 -10.5l-89 84q38 39 103 71t162 32h13q12 -1 24 -3.5t25 -5.5q55 -16 101.5 -54.5t50.5 -102.5v-21
q0 -57 -35 -87t-91 -41q71 -13 109.5 -51.5t39.5 -118.5q-3 -31 -10.5 -52.5t-24.5 -41.5q-7 -8 -15.5 -16t-19.5 -16v0z" />
    <glyph glyph-name="h" unicode="&#xc8;" horiz-adv-x="689" 
d="M81 0v637h136v-352q0 -16 -1.5 -30.5t-3.5 -29.5q-1 -7 -1.5 -13.5t-1.5 -13.5q-2 -8 -3 -16t-2 -17q5 11 10.5 24.5t11.5 27.5q7 18 15.5 35t16.5 28l235 357h137v-637h-137v357q0 16 0.5 28.5t1.5 24.5q0 10 1.5 21.5t4.5 25.5q-5 -9 -8.5 -18t-7.5 -18l-12 -26
t-16 -25l-241 -370h-135v0z" />
    <glyph glyph-name="h" unicode="&#x418;" horiz-adv-x="689" 
d="M81 0v637h136v-352q0 -16 -1.5 -30.5t-3.5 -29.5q-1 -7 -1.5 -13.5t-1.5 -13.5q-2 -8 -3 -16t-2 -17q5 11 10.5 24.5t11.5 27.5q7 18 15.5 35t16.5 28l235 357h137v-637h-137v357q0 16 0.5 28.5t1.5 24.5q0 10 1.5 21.5t4.5 25.5q-5 -9 -8.5 -18t-7.5 -18l-12 -26
t-16 -25l-241 -370h-135v0z" />
    <glyph glyph-name="i" unicode="&#xc9;" horiz-adv-x="689" 
d="M216 0h-135v637h136v-352q0 -16 -1.5 -30.5t-3.5 -29.5q-1 -7 -1.5 -13.5t-1.5 -13.5q-2 -8 -3 -16t-2 -17q5 11 10.5 24.5t11.5 27.5q7 18 15.5 35t16.5 28l235 357h137v-637h-137v357q0 16 0.5 28.5t1.5 24.5q0 10 1.5 21.5t4.5 25.5q-5 -9 -8.5 -18t-7.5 -18l-12 -26
t-16 -25l-241 -370v0zM373 854q33 0 47.5 3t18.5 7q2 2 2.5 3.5t0.5 2.5v7l2 1h99v-4q0 -7 -4 -23t-17 -33q-17 -23 -53 -41.5t-101 -19.5q-65 0 -100.5 19t-51.5 42q-17 22 -19.5 41l-2.5 19h106v-3q0 -2 1 -4.5t5 -5.5q6 -4 21 -7.5t46 -3.5v0z" />
    <glyph glyph-name="i" unicode="&#x419;" horiz-adv-x="689" 
d="M216 0h-135v637h136v-352q0 -16 -1.5 -30.5t-3.5 -29.5q-1 -7 -1.5 -13.5t-1.5 -13.5q-2 -8 -3 -16t-2 -17q5 11 10.5 24.5t11.5 27.5q7 18 15.5 35t16.5 28l235 357h137v-637h-137v357q0 16 0.5 28.5t1.5 24.5q0 10 1.5 21.5t4.5 25.5q-5 -9 -8.5 -18t-7.5 -18l-12 -26
t-16 -25l-241 -370v0zM373 854q33 0 47.5 3t18.5 7q2 2 2.5 3.5t0.5 2.5v7l2 1h99v-4q0 -7 -4 -23t-17 -33q-17 -23 -53 -41.5t-101 -19.5q-65 0 -100.5 19t-51.5 42q-17 22 -19.5 41l-2.5 19h106v-3q0 -2 1 -4.5t5 -5.5q6 -4 21 -7.5t46 -3.5v0z" />
    <glyph glyph-name="j" unicode="&#xca;" horiz-adv-x="640" 
d="M83 0v637h136v-289l210 289h159l-228 -290l236 -347h-163l-214 334v-334h-136v0z" />
    <glyph glyph-name="j" unicode="&#x41a;" horiz-adv-x="640" 
d="M83 0v637h136v-289l210 289h159l-228 -290l236 -347h-163l-214 334v-334h-136v0z" />
    <glyph glyph-name="k" unicode="&#xcb;" horiz-adv-x="710" 
d="M28 -2v122l0.5 -0.5t2.5 -0.5q1 0 2.5 -0.5t3.5 -0.5q10 0 25 3t32 11q10 4 19 11t17 16q21 26 30.5 92.5t12.5 140.5q3 50 3.5 97t0.5 82v13v12v30t1 11h470v-637l-136 2v525h-202v-25q0 -29 -3 -86t-11 -120q-8 -70 -21.5 -131.5t-34.5 -85.5q-37 -43 -78.5 -62
t-95.5 -19h-8.5h-9.5q-3 1 -5.5 1h-4.5h-5.5h-4.5v-1z" />
    <glyph glyph-name="k" unicode="&#x41b;" horiz-adv-x="710" 
d="M28 -2v122l0.5 -0.5t2.5 -0.5q1 0 2.5 -0.5t3.5 -0.5q10 0 25 3t32 11q10 4 19 11t17 16q21 26 30.5 92.5t12.5 140.5q3 50 3.5 97t0.5 82v13v12v30t1 11h470v-637l-136 2v525h-202v-25q0 -29 -3 -86t-11 -120q-8 -70 -21.5 -131.5t-34.5 -85.5q-37 -43 -78.5 -62
t-95.5 -19h-8.5h-9.5q-3 1 -5.5 1h-4.5h-5.5h-4.5v-1z" />
    <glyph glyph-name="l" unicode="&#xcc;" horiz-adv-x="849" 
d="M42 0l97 637h143l123 -374q6 -16 9 -33t6 -35q1 -5 1.5 -10t1.5 -10q2 23 5 45t10 44l124 373h143l96 -637h-128l-47 384q-4 27 -7 53.5t-3 51.5v4.5t1 5.5v1v1q0 3 0.5 6t0.5 5q-4 -27 -9.5 -53t-13.5 -52l-136 -407h-75l-134 407q-4 13 -7 26t-6 27q-3 13 -5.5 26
t-4.5 26q0 -31 -2 -63t-6 -65l-47 -384h-130v0z" />
    <glyph glyph-name="l" unicode="&#x41c;" horiz-adv-x="849" 
d="M42 0l97 637h143l123 -374q6 -16 9 -33t6 -35q1 -5 1.5 -10t1.5 -10q2 23 5 45t10 44l124 373h143l96 -637h-128l-47 384q-4 27 -7 53.5t-3 51.5v4.5t1 5.5v1v1q0 3 0.5 6t0.5 5q-4 -27 -9.5 -53t-13.5 -52l-136 -407h-75l-134 407q-4 13 -7 26t-6 27q-3 13 -5.5 26
t-4.5 26q0 -31 -2 -63t-6 -65l-47 -384h-130v0z" />
    <glyph glyph-name="m" unicode="&#xcd;" horiz-adv-x="689" 
d="M83 0v637h136v-256h275v256h136v-637h-136v267h-275v-267h-136v0z" />
    <glyph glyph-name="m" unicode="&#x41d;" horiz-adv-x="689" 
d="M83 0v637h136v-256h275v256h136v-637h-136v267h-275v-267h-136v0z" />
    <glyph glyph-name="n" unicode="&#xce;" horiz-adv-x="780" 
d="M84 475q47 85 128.5 130t171.5 45q11 0 22.5 -0.5t22.5 -2.5q38 -5 75.5 -18t70.5 -34q65 -43 104 -113t44 -145q1 -6 1 -12v-12q0 -10 -0.5 -20.5t-2.5 -20.5q-2 -21 -7.5 -41.5t-13.5 -40.5q-41 -97 -130 -150.5t-189 -53.5h-10t-10 1q-36 2 -70.5 11t-66.5 25
q-85 45 -132.5 125.5t-47.5 169.5q0 14 1.5 28.5t3.5 29.5q5 25 14 50.5t21 48.5v0zM569 235q8 20 11 40t3 41v5.5v5.5q-3 54 -29.5 104t-73.5 78q-14 8 -28.5 12.5t-29.5 7.5l-18 2t-18 1q-61 0 -112.5 -36t-74.5 -97q-4 -12 -7 -26t-5 -28q-1 -6 -1.5 -13t-0.5 -14v-4v-4
q2 -65 38 -122t100 -76q7 -2 14.5 -3.5t15.5 -3.5q7 -1 14.5 -2t14.5 -1q62 0 113.5 35.5t73.5 97.5v0z" />
    <glyph glyph-name="n" unicode="&#x41e;" horiz-adv-x="780" 
d="M84 475q47 85 128.5 130t171.5 45q11 0 22.5 -0.5t22.5 -2.5q38 -5 75.5 -18t70.5 -34q65 -43 104 -113t44 -145q1 -6 1 -12v-12q0 -10 -0.5 -20.5t-2.5 -20.5q-2 -21 -7.5 -41.5t-13.5 -40.5q-41 -97 -130 -150.5t-189 -53.5h-10t-10 1q-36 2 -70.5 11t-66.5 25
q-85 45 -132.5 125.5t-47.5 169.5q0 14 1.5 28.5t3.5 29.5q5 25 14 50.5t21 48.5v0zM569 235q8 20 11 40t3 41v5.5v5.5q-3 54 -29.5 104t-73.5 78q-14 8 -28.5 12.5t-29.5 7.5l-18 2t-18 1q-61 0 -112.5 -36t-74.5 -97q-4 -12 -7 -26t-5 -28q-1 -6 -1.5 -13t-0.5 -14v-4v-4
q2 -65 38 -122t100 -76q7 -2 14.5 -3.5t15.5 -3.5q7 -1 14.5 -2t14.5 -1q62 0 113.5 35.5t73.5 97.5v0z" />
    <glyph glyph-name="o" unicode="&#xcf;" horiz-adv-x="689" 
d="M83 0v637h547v-637h-136v517h-275v-517h-136v0z" />
    <glyph glyph-name="o" unicode="&#x41f;" horiz-adv-x="689" 
d="M83 0v637h547v-637h-136v517h-275v-517h-136v0z" />
    <glyph glyph-name="p" unicode="&#xd0;" horiz-adv-x="460" 
d="M88 0v637h155q12 0 23.5 -0.5t23.5 -0.5q46 -3 89 -17.5t72 -52.5q12 -17 20.5 -39.5t12.5 -45.5q2 -11 3 -22t1 -21v-6v-6q0 -6 -0.5 -12t-1.5 -12q-19 -103 -96 -131t-166 -28v-243h-136v0zM348 438v13q0 57 -36.5 71t-87.5 14v-188q50 0 86 14.5t38 75.5v0z" />
    <glyph glyph-name="p" unicode="&#x420;" horiz-adv-x="460" 
d="M88 0v637h155q12 0 23.5 -0.5t23.5 -0.5q46 -3 89 -17.5t72 -52.5q12 -17 20.5 -39.5t12.5 -45.5q2 -11 3 -22t1 -21v-6v-6q0 -6 -0.5 -12t-1.5 -12q-19 -103 -96 -131t-166 -28v-243h-136v0zM348 438v13q0 57 -36.5 71t-87.5 14v-188q50 0 86 14.5t38 75.5v0z" />
    <glyph glyph-name="q" unicode="&#xd1;" horiz-adv-x="650" 
d="M590 472q-41 34 -84.5 52.5t-92.5 18.5q-12 0 -25 -1t-26 -4q-4 0 -8.5 -1t-8.5 -2q-75 -17 -114.5 -78t-42.5 -130v-5.5v-5.5v-2v-1q1 -75 45.5 -138t129.5 -73q3 0 6.5 -0.5t6.5 -1.5q7 0 14 -0.5t12 -0.5q53 0 99 19.5t89 56.5l-2 -141q-31 -17 -65 -27.5t-68 -15.5
q-16 -3 -31 -4t-30 -1q-133 0 -238.5 87t-105.5 245q0 130 83 223t212 107q14 2 27.5 3t26.5 1q10 0 20 -0.5t20 -1.5q39 -4 78.5 -15t77.5 -27l-5 -136v0z" />
    <glyph glyph-name="q" unicode="&#x421;" horiz-adv-x="650" 
d="M590 472q-41 34 -84.5 52.5t-92.5 18.5q-12 0 -25 -1t-26 -4q-4 0 -8.5 -1t-8.5 -2q-75 -17 -114.5 -78t-42.5 -130v-5.5v-5.5v-2v-1q1 -75 45.5 -138t129.5 -73q3 0 6.5 -0.5t6.5 -1.5q7 0 14 -0.5t12 -0.5q53 0 99 19.5t89 56.5l-2 -141q-31 -17 -65 -27.5t-68 -15.5
q-16 -3 -31 -4t-30 -1q-133 0 -238.5 87t-105.5 245q0 130 83 223t212 107q14 2 27.5 3t26.5 1q10 0 20 -0.5t20 -1.5q39 -4 78.5 -15t77.5 -27l-5 -136v0z" />
    <glyph glyph-name="Scaron" unicode="&#xd2;" horiz-adv-x="472" 
d="M340 522v-522h-136v522h-155v115h449v-115h-158v0z" />
    <glyph glyph-name="Scaron" unicode="&#x422;" horiz-adv-x="472" 
d="M340 522v-522h-136v522h-155v115h449v-115h-158v0z" />
    <glyph glyph-name="r" unicode="&#xd3;" horiz-adv-x="520" 
d="M545 637l-266 -637h-136l89 206l-191 431h139l100 -255l15 -64l16 63l96 256h138v0z" />
    <glyph glyph-name="r" unicode="&#x423;" horiz-adv-x="520" 
d="M545 637l-266 -637h-136l89 206l-191 431h139l100 -255l15 -64l16 63l96 256h138v0z" />
    <glyph glyph-name="t" unicode="&#xd4;" horiz-adv-x="880" 
d="M501 -125h-131v110q-39 2 -77 11.5t-73 27.5q-83 44 -131 124.5t-48 170.5q0 14 1.5 28.5t3.5 28.5q5 26 13.5 51.5t21.5 48.5q45 80 123 126t164 50v-2l2 2v119h131v-121v2q88 -4 165.5 -50t121.5 -126q12 -22 19.5 -44.5t11.5 -46.5q3 -15 4.5 -30.5t1.5 -30.5
q0 -129 -93.5 -231.5t-230.5 -106.5v-111v0zM673 400q-22 57 -68.5 92.5t-103.5 39.5v-2v-425l-2 -1h2q85 8 135 71.5t50 142.5q0 10 -1 20.5t-2 20.5q-2 11 -4.5 21t-5.5 20v0zM319 113q3 -1 6.5 -2t7.5 -2q10 -2 20 -3t17 -1v427l-2 -2v2q-82 -5 -130.5 -68t-54.5 -138
q-1 -5 -1 -10v-10q0 -63 34 -118.5t103 -74.5v0z" />
    <glyph glyph-name="t" unicode="&#x424;" horiz-adv-x="880" 
d="M501 -125h-131v110q-39 2 -77 11.5t-73 27.5q-83 44 -131 124.5t-48 170.5q0 14 1.5 28.5t3.5 28.5q5 26 13.5 51.5t21.5 48.5q45 80 123 126t164 50v-2l2 2v119h131v-121v2q88 -4 165.5 -50t121.5 -126q12 -22 19.5 -44.5t11.5 -46.5q3 -15 4.5 -30.5t1.5 -30.5
q0 -129 -93.5 -231.5t-230.5 -106.5v-111v0zM673 400q-22 57 -68.5 92.5t-103.5 39.5v-2v-425l-2 -1h2q85 8 135 71.5t50 142.5q0 10 -1 20.5t-2 20.5q-2 11 -4.5 21t-5.5 20v0zM319 113q3 -1 6.5 -2t7.5 -2q10 -2 20 -3t17 -1v427l-2 -2v2q-82 -5 -130.5 -68t-54.5 -138
q-1 -5 -1 -10v-10q0 -63 34 -118.5t103 -74.5v0z" />
    <glyph glyph-name="u" unicode="&#xd5;" horiz-adv-x="619" 
d="M285 470q9 -14 15.5 -29t12.5 -31q4 8 7.5 16t7.5 16q3 7 6.5 15t7.5 16l91 164h144l-191 -303l196 -334h-146l-96 177q-4 8 -7.5 17t-6.5 18q-4 8 -6.5 17t-5.5 17q-1 -3 -2 -5.5t-2 -5.5q-3 -7 -6 -14.5t-6 -14.5q-3 -8 -6.5 -16t-7.5 -15l-94 -175h-145l195 334
l-191 303h145l91 -167v0z" />
    <glyph glyph-name="u" unicode="&#x425;" horiz-adv-x="619" 
d="M285 470q9 -14 15.5 -29t12.5 -31q4 8 7.5 16t7.5 16q3 7 6.5 15t7.5 16l91 164h144l-191 -303l196 -334h-146l-96 177q-4 8 -7.5 17t-6.5 18q-4 8 -6.5 17t-5.5 17q-1 -3 -2 -5.5t-2 -5.5q-3 -7 -6 -14.5t-6 -14.5q-3 -8 -6.5 -16t-7.5 -15l-94 -175h-145l195 334
l-191 303h145l91 -167v0z" />
    <glyph glyph-name="zero" unicode="&#xd6;" horiz-adv-x="760" 
d="M579 0h-495v637h136v-520h276v520h136v-519h84v-264h-137v146v0z" />
    <glyph glyph-name="zero" unicode="&#x426;" horiz-adv-x="760" 
d="M579 0h-495v637h136v-520h276v520h136v-519h84v-264h-137v146v0z" />
    <glyph glyph-name="parenright" unicode="&#xd7;" horiz-adv-x="601" 
d="M50 374v263h136v-230q0 -19 4.5 -33t10.5 -24q6 -9 10.5 -14l4.5 -5q13 -9 31 -14.5t37 -6.5h4h4q5 0 10 0.5t10 0.5q31 4 59.5 21.5t38.5 49.5v255h136v-637h-136v267q-25 -20 -63.5 -32t-79.5 -15q-6 -1 -12 -1h-12q-73 0 -133.5 34.5t-60.5 109.5v2.5t1 3.5v2.5v2.5v0
z" />
    <glyph glyph-name="parenright" unicode="&#x427;" horiz-adv-x="601" 
d="M50 374v263h136v-230q0 -19 4.5 -33t10.5 -24q6 -9 10.5 -14l4.5 -5q13 -9 31 -14.5t37 -6.5h4h4q5 0 10 0.5t10 0.5q31 4 59.5 21.5t38.5 49.5v255h136v-637h-136v267q-25 -20 -63.5 -32t-79.5 -15q-6 -1 -12 -1h-12q-73 0 -133.5 34.5t-60.5 109.5v2.5t1 3.5v2.5v2.5v0
z" />
    <glyph glyph-name="x" unicode="&#xd8;" horiz-adv-x="861" 
d="M799 637v-637h-713v637h136v-522h152v522h137v-522h152v522h136v0z" />
    <glyph glyph-name="x" unicode="&#x428;" horiz-adv-x="861" 
d="M799 637v-637h-713v637h136v-522h152v522h137v-522h152v522h136v0z" />
    <glyph glyph-name="y" unicode="&#xd9;" horiz-adv-x="921" 
d="M806 118h59v-265h-134v147h-639v637h137v-522h152v522h136v-522h152v522h137v-519v0z" />
    <glyph glyph-name="y" unicode="&#x429;" horiz-adv-x="921" 
d="M806 118h59v-265h-134v147h-639v637h137v-522h152v522h136v-522h152v522h137v-519v0z" />
    <glyph glyph-name="z" unicode="&#xda;" horiz-adv-x="650" 
d="M276 0h-90v524h-147v113h284v-256q42 0 80.5 -2t71.5 -16q59 -19 91 -60.5t32 -109.5v-28q-6 -93 -72 -125t-143 -38q-23 -1 -45 -1.5t-43 -0.5h-19v0zM465 190l-1 1q0 54 -31.5 69t-69.5 16h-4h-4h-34v-171h7.5h7.5q3 -1 6.5 -1h7.5q43 0 78.5 14t36.5 72v0z" />
    <glyph glyph-name="z" unicode="&#x42a;" horiz-adv-x="650" 
d="M276 0h-90v524h-147v113h284v-256q42 0 80.5 -2t71.5 -16q59 -19 91 -60.5t32 -109.5v-28q-6 -93 -72 -125t-143 -38q-23 -1 -45 -1.5t-43 -0.5h-19v0zM465 190l-1 1q0 54 -31.5 69t-69.5 16h-4h-4h-34v-171h7.5h7.5q3 -1 6.5 -1h7.5q43 0 78.5 14t36.5 72v0z" />
    <glyph glyph-name="braceleft" unicode="&#xdb;" horiz-adv-x="741" 
d="M216 637v-256q15 0 31 -0.5t33 -1.5q30 -1 58 -5.5t49 -13.5q47 -21 76.5 -57.5t29.5 -129.5v-6q-7 -94 -73 -126t-144 -38q-24 -2 -48 -2.5t-46 -0.5h-103v637h137v0zM216 277v-170q3 0 6.5 -0.5t7.5 -0.5q2 0 3.5 -0.5t3.5 -0.5h4h4h2.5h3.5q40 0 73 15t34 71l-1 2
q0 55 -33.5 69.5t-72.5 14.5h-3.5h-2.5h-29v0zM546 637h136v-637h-136v637v0z" />
    <glyph glyph-name="braceleft" unicode="&#x42b;" horiz-adv-x="741" 
d="M216 637v-256q15 0 31 -0.5t33 -1.5q30 -1 58 -5.5t49 -13.5q47 -21 76.5 -57.5t29.5 -129.5v-6q-7 -94 -73 -126t-144 -38q-24 -2 -48 -2.5t-46 -0.5h-103v637h137v0zM216 277v-170q3 0 6.5 -0.5t7.5 -0.5q2 0 3.5 -0.5t3.5 -0.5h4h4h2.5h3.5q40 0 73 15t34 71l-1 2
q0 55 -33.5 69.5t-72.5 14.5h-3.5h-2.5h-29v0zM546 637h136v-637h-136v637v0z" />
    <glyph glyph-name="bar" unicode="&#xdc;" horiz-adv-x="549" 
d="M219 637v-255h42q28 0 55.5 -2t54.5 -12q60 -19 92.5 -64t32.5 -114v-23q-6 -94 -72.5 -126.5t-145.5 -37.5q-24 -2 -47.5 -2.5t-45.5 -0.5h-102v637h136v0zM219 107q3 0 6.5 -0.5t7.5 -0.5q2 0 3.5 -0.5t3.5 -0.5h4h4h2.5h3.5q40 0 73 15t34 71l-1 2q0 55 -33.5 69.5
t-72.5 14.5h-3.5h-2.5h-29v-170v0z" />
    <glyph glyph-name="bar" unicode="&#x42c;" horiz-adv-x="549" 
d="M219 637v-255h42q28 0 55.5 -2t54.5 -12q60 -19 92.5 -64t32.5 -114v-23q-6 -94 -72.5 -126.5t-145.5 -37.5q-24 -2 -47.5 -2.5t-45.5 -0.5h-102v637h136v0zM219 107q3 0 6.5 -0.5t7.5 -0.5q2 0 3.5 -0.5t3.5 -0.5h4h4h2.5h3.5q40 0 73 15t34 71l-1 2q0 55 -33.5 69.5
t-72.5 14.5h-3.5h-2.5h-29v-170v0z" />
    <glyph glyph-name="braceright" unicode="&#xdd;" horiz-adv-x="660" 
d="M310 648q128 -16 211.5 -109t83.5 -223q0 -158 -106 -244.5t-240 -86.5q-13 0 -26.5 1t-27.5 3q-36 4 -71 15t-68 28l-1 141q43 -36 88 -56t97 -20q5 0 11.5 0.5t13.5 1.5h0.5h0.5q4 0 7.5 0.5t6.5 0.5q72 8 114 55.5t55 111.5h-277v114h275q-1 62 -46.5 104t-102.5 50
q-3 0 -6 0.5t-6 0.5h-4h-4q-10 1 -19.5 1.5t-18.5 0.5q-51 0 -97 -15.5t-90 -52.5l-3 136q49 21 98.5 32.5t100.5 11.5h25.5t25.5 -2v0z" />
    <glyph glyph-name="braceright" unicode="&#x42d;" horiz-adv-x="660" 
d="M310 648q128 -16 211.5 -109t83.5 -223q0 -158 -106 -244.5t-240 -86.5q-13 0 -26.5 1t-27.5 3q-36 4 -71 15t-68 28l-1 141q43 -36 88 -56t97 -20q5 0 11.5 0.5t13.5 1.5h0.5h0.5q4 0 7.5 0.5t6.5 0.5q72 8 114 55.5t55 111.5h-277v114h275q-1 62 -46.5 104t-102.5 50
q-3 0 -6 0.5t-6 0.5h-4h-4q-10 1 -19.5 1.5t-18.5 0.5q-51 0 -97 -15.5t-90 -52.5l-3 136q49 21 98.5 32.5t100.5 11.5h25.5t25.5 -2v0z" />
    <glyph glyph-name="asciitilde" unicode="&#xde;" horiz-adv-x="1029" 
d="M222 381h73q0 8 1.5 17t4.5 18q5 14 11.5 28t13.5 26q1 2 2.5 4t2.5 4q46 86 128 130.5t171 44.5q12 0 24.5 -1t24.5 -2q37 -5 73.5 -18t69.5 -34q71 -46 110 -122.5t39 -159.5q0 -13 -1 -27t-4 -28q-3 -17 -7.5 -34.5t-11.5 -33.5q-42 -97 -131 -150t-189 -53
q-10 0 -20 0.5t-20 1.5q-30 4 -59.5 12.5t-57.5 21.5q-75 38 -115 100t-60 140l-73 1v-267h-138v637h138v-256v0zM815 238q5 13 8.5 26.5t4.5 27.5q1 7 1.5 13.5t0.5 13.5v5.5v5.5q-3 54 -29.5 104t-74.5 78q-13 7 -27 12t-29 8q-10 2 -20 3t-20 1q-59 0 -110.5 -36
t-73.5 -98q-4 -12 -7.5 -25.5t-5.5 -27.5q-1 -7 -1.5 -14t-0.5 -14v-4v-4q2 -65 38 -122t100 -76q10 -2 20 -4.5t20 -4.5q5 0 10 -0.5t10 -0.5q62 0 113 36t73 97v0z" />
    <glyph glyph-name="asciitilde" unicode="&#x42e;" horiz-adv-x="1029" 
d="M222 381h73q0 8 1.5 17t4.5 18q5 14 11.5 28t13.5 26q1 2 2.5 4t2.5 4q46 86 128 130.5t171 44.5q12 0 24.5 -1t24.5 -2q37 -5 73.5 -18t69.5 -34q71 -46 110 -122.5t39 -159.5q0 -13 -1 -27t-4 -28q-3 -17 -7.5 -34.5t-11.5 -33.5q-42 -97 -131 -150t-189 -53
q-10 0 -20 0.5t-20 1.5q-30 4 -59.5 12.5t-57.5 21.5q-75 38 -115 100t-60 140l-73 1v-267h-138v637h138v-256v0zM815 238q5 13 8.5 26.5t4.5 27.5q1 7 1.5 13.5t0.5 13.5v5.5v5.5q-3 54 -29.5 104t-74.5 78q-13 7 -27 12t-29 8q-10 2 -20 3t-20 1q-59 0 -110.5 -36
t-73.5 -98q-4 -12 -7.5 -25.5t-5.5 -27.5q-1 -7 -1.5 -14t-0.5 -14v-4v-4q2 -65 38 -122t100 -76q10 -2 20 -4.5t20 -4.5q5 0 10 -0.5t10 -0.5q62 0 113 36t73 97v0z" />
    <glyph glyph-name="germandbls" unicode="&#xdf;" horiz-adv-x="559" 
d="M203 0h-158l175 290q-66 10 -103 59.5t-38 107.5v1v2q0 7 0.5 14t1.5 14q5 28 18.5 55t35.5 47q26 24 58 33.5t65 11.5q14 1 27 1.5t26 0.5h195v-637h-136v298l-167 -298v0zM370 366v167h-25h-14t-14 -1q-39 -2 -72 -17.5t-33 -65.5q0 -1 0.5 -2.5t0.5 -2.5
q0 -2 0.5 -3.5t0.5 -2.5q3 -45 35.5 -58.5t70.5 -14.5h5h6h6.5h6.5h3.5t3.5 1h10h9v0z" />
    <glyph glyph-name="germandbls" unicode="&#x42f;" horiz-adv-x="559" 
d="M203 0h-158l175 290q-66 10 -103 59.5t-38 107.5v1v2q0 7 0.5 14t1.5 14q5 28 18.5 55t35.5 47q26 24 58 33.5t65 11.5q14 1 27 1.5t26 0.5h195v-637h-136v298l-167 -298v0zM370 366v167h-25h-14t-14 -1q-39 -2 -72 -17.5t-33 -65.5q0 -1 0.5 -2.5t0.5 -2.5
q0 -2 0.5 -3.5t0.5 -2.5q3 -45 35.5 -58.5t70.5 -14.5h5h6h6.5h6.5h3.5t3.5 1h10h9v0z" />
    <glyph glyph-name="agrave" unicode="&#xe0;" horiz-adv-x="549" 
d="M494 0h-120l2 62q-27 -39 -62 -57.5t-82 -18.5l-5 -1q-69 1 -117.5 45t-62.5 109q-1 5 -1.5 10t-1.5 10q-1 6 -1.5 12t-1.5 12q-1 7 -1.5 14.5t-0.5 14.5q0 8 0.5 16t0.5 16q6 63 38 118.5t97 71.5q6 2 12.5 3t13.5 2t13.5 1.5t12.5 0.5q45 0 84.5 -21.5t64.5 -62.5v71
h118v-428v0zM167 230q0 -2 -0.5 -4.5t-0.5 -5.5v-2v-2q-1 -2 -1 -3.5v-3.5v-2.5v-3.5q2 -42 27.5 -77t76.5 -35l3 1l2 -1q45 0 72.5 34.5t31.5 76.5q1 4 1 7.5v7.5v6v5q-3 34 -20 64.5t-51 41.5l-8 2t-8 1q-6 1 -11 1.5t-9 0.5q-45 0 -72.5 -34t-32.5 -75v0z" />
    <glyph glyph-name="agrave" unicode="&#x430;" horiz-adv-x="549" 
d="M494 0h-120l2 62q-27 -39 -62 -57.5t-82 -18.5l-5 -1q-69 1 -117.5 45t-62.5 109q-1 5 -1.5 10t-1.5 10q-1 6 -1.5 12t-1.5 12q-1 7 -1.5 14.5t-0.5 14.5q0 8 0.5 16t0.5 16q6 63 38 118.5t97 71.5q6 2 12.5 3t13.5 2t13.5 1.5t12.5 0.5q45 0 84.5 -21.5t64.5 -62.5v71
h118v-428v0zM167 230q0 -2 -0.5 -4.5t-0.5 -5.5v-2v-2q-1 -2 -1 -3.5v-3.5v-2.5v-3.5q2 -42 27.5 -77t76.5 -35l3 1l2 -1q45 0 72.5 34.5t31.5 76.5q1 4 1 7.5v7.5v6v5q-3 34 -20 64.5t-51 41.5l-8 2t-8 1q-6 1 -11 1.5t-9 0.5q-45 0 -72.5 -34t-32.5 -75v0z" />
    <glyph glyph-name="K" unicode="&#xe1;" horiz-adv-x="580" 
d="M182 408q18 10 37.5 16.5t38.5 9.5q12 2 23 3t22 1q86 0 158 -57.5t72 -168.5q0 -102 -70.5 -163t-169.5 -61l-22 -1q-86 7 -143 67.5t-70 132.5q0 2 -0.5 4.5t-0.5 4.5q-1 12 -2.5 27.5t-1.5 32.5q0 26 2.5 56t7.5 61q7 46 21 89t36 73q20 26 43 42t47 26q21 9 41.5 14
t39.5 10q24 6 42 14t25 24h101q0 -73 -41.5 -98t-91.5 -38q-3 0 -6.5 -1t-7.5 -2q-28 -7 -53 -15.5t-42 -24.5q-13 -14 -22.5 -33.5t-12.5 -44.5v0zM410 216v1.5v1.5q-1 41 -35.5 75.5t-77.5 34.5t-77.5 -29.5t-37.5 -83.5q0 -52 35 -79t78 -27h1.5h1.5q42 1 77 27.5
t35 78.5v0z" />
    <glyph glyph-name="K" unicode="&#x431;" horiz-adv-x="580" 
d="M182 408q18 10 37.5 16.5t38.5 9.5q12 2 23 3t22 1q86 0 158 -57.5t72 -168.5q0 -102 -70.5 -163t-169.5 -61l-22 -1q-86 7 -143 67.5t-70 132.5q0 2 -0.5 4.5t-0.5 4.5q-1 12 -2.5 27.5t-1.5 32.5q0 26 2.5 56t7.5 61q7 46 21 89t36 73q20 26 43 42t47 26q21 9 41.5 14
t39.5 10q24 6 42 14t25 24h101q0 -73 -41.5 -98t-91.5 -38q-3 0 -6.5 -1t-7.5 -2q-28 -7 -53 -15.5t-42 -24.5q-13 -14 -22.5 -33.5t-12.5 -44.5v0zM410 216v1.5v1.5q-1 41 -35.5 75.5t-77.5 34.5t-77.5 -29.5t-37.5 -83.5q0 -52 35 -79t78 -27h1.5h1.5q42 1 77 27.5
t35 78.5v0z" />
    <glyph glyph-name="quotedbl" unicode="&#xe2;" horiz-adv-x="472" 
d="M421 112q-3 -52 -36.5 -82t-134.5 -30h-195l-2 428h179q87 0 131.5 -22.5t46.5 -81.5q0 -35 -13.5 -61t-61.5 -36q44 -7 65 -36t21 -74v-5v0zM172 185v-114h8.5h9.5q4 -1 8.5 -1h8.5h2.5h3.5q34 0 62.5 10.5t29.5 47.5q0 36 -29.5 46t-64.5 11h-4.5h-5.5h-29v0zM172 357
v-101l1 -0.5t3 -0.5v0v0q1 -1 2 -1h2h16.5t16.5 1q30 2 55 12.5t25 38.5v4q0 28 -25 37t-55 10h-4.5h-5.5h-31v0z" />
    <glyph glyph-name="quotedbl" unicode="&#x432;" horiz-adv-x="472" 
d="M421 112q-3 -52 -36.5 -82t-134.5 -30h-195l-2 428h179q87 0 131.5 -22.5t46.5 -81.5q0 -35 -13.5 -61t-61.5 -36q44 -7 65 -36t21 -74v-5v0zM172 185v-114h8.5h9.5q4 -1 8.5 -1h8.5h2.5h3.5q34 0 62.5 10.5t29.5 47.5q0 36 -29.5 46t-64.5 11h-4.5h-5.5h-29v0zM172 357
v-101l1 -0.5t3 -0.5v0v0q1 -1 2 -1h2h16.5t16.5 1q30 2 55 12.5t25 38.5v4q0 28 -25 37t-55 10h-4.5h-5.5h-31v0z" />
    <glyph glyph-name="atilde" unicode="&#xe3;" horiz-adv-x="361" 
d="M180 0h-123v428h274v-102h-151v-326v0z" />
    <glyph glyph-name="atilde" unicode="&#x433;" horiz-adv-x="361" 
d="M180 0h-123v428h274v-102h-151v-326v0z" />
    <glyph glyph-name="adieresis" unicode="&#xe4;" horiz-adv-x="561" 
d="M480 89h55v-186h-123v97h-253v-97h-123v186h22q3 0 11.5 5.5t17.5 16.5l8 10t7 12q1 1 1.5 2.5t0.5 2.5q15 38 21.5 93t9.5 197h345v-339v0zM253 335q-1 -92 -9 -134.5t-19 -65.5l-5 -10t-7 -11q-4 -6 -8.5 -11.5t-10.5 -10.5h161v243h-102v0z" />
    <glyph glyph-name="adieresis" unicode="&#x434;" horiz-adv-x="561" 
d="M480 89h55v-186h-123v97h-253v-97h-123v186h22q3 0 11.5 5.5t17.5 16.5l8 10t7 12q1 1 1.5 2.5t0.5 2.5q15 38 21.5 93t9.5 197h345v-339v0zM253 335q-1 -92 -9 -134.5t-19 -65.5l-5 -10t-7 -11q-4 -6 -8.5 -11.5t-10.5 -10.5h161v243h-102v0z" />
    <glyph glyph-name="yright" unicode="&#xe5;" horiz-adv-x="549" 
d="M493 183h-321q10 -40 29 -63.5t62 -27.5h4h4h0.5h1.5q2 -1 4.5 -1h4.5q29 0 53 13.5t41 38.5l100 -49q-38 -57 -88 -82.5t-119 -25.5l-13 -1q-97 5 -152 69.5t-55 152.5q0 8 0.5 15.5t1.5 15.5q1 5 1.5 10t0.5 10q15 85 79.5 134t143.5 49q11 0 23.5 -1t24.5 -4
q10 -1 20 -4t19 -6q77 -28 103.5 -88t26.5 -131v-24v0zM274 339q-43 0 -66 -21t-31 -60h193q-7 40 -29.5 60.5t-66.5 20.5v0z" />
    <glyph glyph-name="yright" unicode="&#x435;" horiz-adv-x="549" 
d="M493 183h-321q10 -40 29 -63.5t62 -27.5h4h4h0.5h1.5q2 -1 4.5 -1h4.5q29 0 53 13.5t41 38.5l100 -49q-38 -57 -88 -82.5t-119 -25.5l-13 -1q-97 5 -152 69.5t-55 152.5q0 8 0.5 15.5t1.5 15.5q1 5 1.5 10t0.5 10q15 85 79.5 134t143.5 49q11 0 23.5 -1t24.5 -4
q10 -1 20 -4t19 -6q77 -28 103.5 -88t26.5 -131v-24v0zM274 339q-43 0 -66 -21t-31 -60h193q-7 40 -29.5 60.5t-66.5 20.5v0z" />
    <glyph glyph-name="guilsinglright" unicode="&#xe6;" horiz-adv-x="770" 
d="M446 0h-125v227l-154 -227h-139l171 238l-157 190h136l143 -190v190h125v-190l142 190h136l-155 -190l172 -238h-140l-155 227v-227v0z" />
    <glyph glyph-name="guilsinglright" unicode="&#x436;" horiz-adv-x="770" 
d="M446 0h-125v227l-154 -227h-139l171 238l-157 190h136l143 -190v190h125v-190l142 190h136l-155 -190l172 -238h-140l-155 227v-227v0z" />
    <glyph glyph-name="florin" unicode="&#xe7;" horiz-adv-x="400" 
d="M240 128q0 36 -29.5 46t-64.5 11h-4.5h-5.5h-31v71h2t2 -1v0v0q2 0 3 -0.5l1 -0.5h16t17 1q31 2 57 12.5t26 38.5q-1 25 -20.5 32.5t-49.5 8.5l-5 -2q-21 0 -40 -5t-33 -11q-15 -6 -23.5 -11l-8.5 -5v100q1 0 11.5 3t26.5 7q17 4 38 7t45 3q15 0 30.5 -1.5t30.5 -5.5
q24 -5 47 -15t43 -27q2 -2 5 -6t6 -9q3 -6 6 -12.5t5 -13.5q1 -2 1.5 -4.5t0.5 -4.5q0 -43 -12.5 -70.5t-56.5 -38.5q40 -7 59.5 -29t19.5 -78v-9q0 -5 -1 -10t-3 -11q-3 -8 -6.5 -15.5t-7.5 -14.5q-7 -11 -13 -18.5l-6 -7.5q-15 -11 -31.5 -19t-32.5 -13q-21 -6 -42 -9
t-40 -3q-26 0 -48.5 4t-39.5 8q-16 5 -25.5 9l-9.5 4v102l6.5 -5.5t19.5 -12.5t32.5 -12.5t44.5 -5.5q1 0 2.5 0.5t2.5 0.5q2 0 3 0.5t2 0.5h4.5t5.5 1q18 2 34 10t25 18q4 4 6.5 8t2.5 8v2v0z" />
    <glyph glyph-name="florin" unicode="&#x437;" horiz-adv-x="400" 
d="M240 128q0 36 -29.5 46t-64.5 11h-4.5h-5.5h-31v71h2t2 -1v0v0q2 0 3 -0.5l1 -0.5h16t17 1q31 2 57 12.5t26 38.5q-1 25 -20.5 32.5t-49.5 8.5l-5 -2q-21 0 -40 -5t-33 -11q-15 -6 -23.5 -11l-8.5 -5v100q1 0 11.5 3t26.5 7q17 4 38 7t45 3q15 0 30.5 -1.5t30.5 -5.5
q24 -5 47 -15t43 -27q2 -2 5 -6t6 -9q3 -6 6 -12.5t5 -13.5q1 -2 1.5 -4.5t0.5 -4.5q0 -43 -12.5 -70.5t-56.5 -38.5q40 -7 59.5 -29t19.5 -78v-9q0 -5 -1 -10t-3 -11q-3 -8 -6.5 -15.5t-7.5 -14.5q-7 -11 -13 -18.5l-6 -7.5q-15 -11 -31.5 -19t-32.5 -13q-21 -6 -42 -9
t-40 -3q-26 0 -48.5 4t-39.5 8q-16 5 -25.5 9l-9.5 4v102l6.5 -5.5t19.5 -12.5t32.5 -12.5t44.5 -5.5q1 0 2.5 0.5t2.5 0.5q2 0 3 0.5t2 0.5h4.5t5.5 1q18 2 34 10t25 18q4 4 6.5 8t2.5 8v2v0z" />
    <glyph glyph-name="comma" unicode="&#xe8;" horiz-adv-x="540" 
d="M180 0h-123v428h123v-232v-14.5t-1 -5.5q0 -2 -1 -5t-3 -12q4 6 5 9t2 5v0.5v0.5q1 2 3 4.5t8 9.5l178 240h118v-428h-123v241q0 11 0.5 14.5t0.5 5.5q1 2 2 5.5t2 13.5q-3 -7 -5 -10.5t-3 -5.5q-1 -1 -1 -1.5t-1 -1.5q-1 -2 -4 -5.5t-9 -9.5l-168 -246v0z" />
    <glyph glyph-name="comma" unicode="&#x438;" horiz-adv-x="540" 
d="M180 0h-123v428h123v-232v-14.5t-1 -5.5q0 -2 -1 -5t-3 -12q4 6 5 9t2 5v0.5v0.5q1 2 3 4.5t8 9.5l178 240h118v-428h-123v241q0 11 0.5 14.5t0.5 5.5q1 2 2 5.5t2 13.5q-3 -7 -5 -10.5t-3 -5.5q-1 -1 -1 -1.5t-1 -1.5q-1 -2 -4 -5.5t-9 -9.5l-168 -246v0z" />
    <glyph glyph-name="L" unicode="&#xe9;" horiz-adv-x="540" 
d="M348 246l-168 -246h-123v428h123v-232v-14.5t-1 -5.5q0 -2 -1 -5t-3 -12q4 6 5 9t2 5v0.5v0.5q1 2 3 4.5t8 9.5l178 240h118v-428h-123v241q0 11 0.5 14.5t0.5 5.5q1 2 2 5.5t2 13.5q-3 -4 -5.5 -7.5t-4.5 -6.5l-0.5 -0.5t-0.5 -1.5q-3 -3 -5.5 -7t-6.5 -11v0zM331 601
h76v-3q0 -4 -3 -16t-14 -26q-13 -17 -40.5 -30.5t-77.5 -13.5t-77 14.5t-39 32.5q-13 17 -15 31.5l-2 14.5h81v-2l-1 -3q0 -2 1 -5t4 -6q4 -6 16 -10.5t36 -4.5q28 0 39 4t13 10q1 1 1 2.5v2.5v5l2 3v0z" />
    <glyph glyph-name="L" unicode="&#x439;" horiz-adv-x="540" 
d="M348 246l-168 -246h-123v428h123v-232v-14.5t-1 -5.5q0 -2 -1 -5t-3 -12q4 6 5 9t2 5v0.5v0.5q1 2 3 4.5t8 9.5l178 240h118v-428h-123v241q0 11 0.5 14.5t0.5 5.5q1 2 2 5.5t2 13.5q-3 -4 -5.5 -7.5t-4.5 -6.5l-0.5 -0.5t-0.5 -1.5q-3 -3 -5.5 -7t-6.5 -11v0zM331 601
h76v-3q0 -4 -3 -16t-14 -26q-13 -17 -40.5 -30.5t-77.5 -13.5t-77 14.5t-39 32.5q-13 17 -15 31.5l-2 14.5h81v-2l-1 -3q0 -2 1 -5t4 -6q4 -6 16 -10.5t36 -4.5q28 0 39 4t13 10q1 1 1 2.5v2.5v5l2 3v0z" />
    <glyph glyph-name="asterisk" unicode="&#xea;" horiz-adv-x="540" 
d="M180 428v-190l159 190h149l-172 -190l188 -238h-152l-172 227v-227h-123v428h123v0z" />
    <glyph glyph-name="asterisk" unicode="&#x43a;" horiz-adv-x="540" 
d="M180 428v-190l159 190h149l-172 -190l188 -238h-152l-172 227v-227h-123v428h123v0z" />
    <glyph glyph-name="edieresis" unicode="&#xeb;" horiz-adv-x="549" 
d="M259 334l-1.5 -47t-10.5 -104q-6 -40 -17 -77t-29 -57q-21 -23 -55 -36t-73 -13h-23v104l0.5 -0.5t1.5 -0.5t2.5 -0.5t3.5 -0.5q5 0 13.5 1.5t16.5 6.5q6 3 11.5 7.5t10.5 10.5q13 16 19.5 57.5t9.5 88.5q1 25 1.5 50t0.5 46v42q0 3 0.5 6t0.5 5t0.5 3.5l0.5 1.5h351
v-428h-123v334h-112v0z" />
    <glyph glyph-name="edieresis" unicode="&#x43b;" horiz-adv-x="549" 
d="M259 334l-1.5 -47t-10.5 -104q-6 -40 -17 -77t-29 -57q-21 -23 -55 -36t-73 -13h-23v104l0.5 -0.5t1.5 -0.5t2.5 -0.5t3.5 -0.5q5 0 13.5 1.5t16.5 6.5q6 3 11.5 7.5t10.5 10.5q13 16 19.5 57.5t9.5 88.5q1 25 1.5 50t0.5 46v42q0 3 0.5 6t0.5 5t0.5 3.5l0.5 1.5h351
v-428h-123v334h-112v0z" />
    <glyph glyph-name="igrave" unicode="&#xec;" horiz-adv-x="681" 
d="M363 0h-52l-91 235q-4 9 -6 19.5t-4 20.5v0.5v1.5q-1 5 -2 10.5t-2 10.5q0 -19 -2 -37.5t-6 -36.5l-38 -224h-121l86 428h104l110 -310l107 310h102l87 -428h-123l-36 224q0 3 -1 6t-1 6q-3 15 -5 30.5t-2 31.5q0 -3 -0.5 -6.5t-1.5 -6.5v-4t-1 -4q-1 -11 -3.5 -21.5
t-8.5 -20.5l-89 -235v0z" />
    <glyph glyph-name="igrave" unicode="&#x43c;" horiz-adv-x="681" 
d="M363 0h-52l-91 235q-4 9 -6 19.5t-4 20.5v0.5v1.5q-1 5 -2 10.5t-2 10.5q0 -19 -2 -37.5t-6 -36.5l-38 -224h-121l86 428h104l110 -310l107 310h102l87 -428h-123l-36 224q0 3 -1 6t-1 6q-3 15 -5 30.5t-2 31.5q0 -3 -0.5 -6.5t-1.5 -6.5v-4t-1 -4q-1 -11 -3.5 -21.5
t-8.5 -20.5l-89 -235v0z" />
    <glyph glyph-name="ellipsis" unicode="&#xed;" horiz-adv-x="549" 
d="M180 253h186v175h123v-428h-123v170h-186v-170h-123v428h123v-175v0z" />
    <glyph glyph-name="ellipsis" unicode="&#x43d;" horiz-adv-x="549" 
d="M180 253h186v175h123v-428h-123v170h-186v-170h-123v428h123v-175v0z" />
    <glyph glyph-name="percent" unicode="&#xee;" horiz-adv-x="561" 
d="M517 212q0 -102 -71 -163t-169 -61l-23 -1q-92 7 -153.5 73t-61.5 154v7.5t1 7.5q0 5 1 10t1 9q1 3 1.5 5.5t0.5 5.5q18 92 86 137t146 45h4h5q87 -3 159.5 -61.5t72.5 -167.5v0zM165 216q0 -38 28.5 -68t63.5 -38q6 -2 11.5 -2.5t10.5 -0.5q44 0 79.5 32.5t35.5 76.5
v1.5v1.5q-1 41 -36.5 75.5t-78.5 34.5q-42 0 -77.5 -34.5t-36.5 -75.5v-1.5v-1.5v0z" />
    <glyph glyph-name="percent" unicode="&#x43e;" horiz-adv-x="561" 
d="M517 212q0 -102 -71 -163t-169 -61l-23 -1q-92 7 -153.5 73t-61.5 154v7.5t1 7.5q0 5 1 10t1 9q1 3 1.5 5.5t0.5 5.5q18 92 86 137t146 45h4h5q87 -3 159.5 -61.5t72.5 -167.5v0zM165 216q0 -38 28.5 -68t63.5 -38q6 -2 11.5 -2.5t10.5 -0.5q44 0 79.5 32.5t35.5 76.5
v1.5v1.5q-1 41 -36.5 75.5t-78.5 34.5q-42 0 -77.5 -34.5t-36.5 -75.5v-1.5v-1.5v0z" />
    <glyph glyph-name="C" unicode="&#xef;" horiz-adv-x="549" 
d="M489 428v-428h-123v339h-186v-339h-123v428h432v0z" />
    <glyph glyph-name="C" unicode="&#x43f;" horiz-adv-x="549" 
d="M489 428v-428h-123v339h-186v-339h-123v428h432v0z" />
    <glyph glyph-name="eth" unicode="&#xf0;" horiz-adv-x="559" 
d="M57 -193v621h118v-71q26 40 66 62.5t85 22.5q9 0 18.5 -1t19.5 -3q12 -3 23.5 -7.5t22.5 -9.5q49 -26 75 -78t29 -109v-7.5v-7.5v-5.5v-5.5q-4 -84 -54 -153t-139 -69l-2 -1q-49 1 -83 19.5t-61 57.5q4 -19 4.5 -38.5t0.5 -37.5v-179h-123v0zM386 214q0 61 -33 92.5
t-73 32.5h-1.5h-1.5h-4h-4q-37 -3 -68 -34t-31 -89v-2q0 -51 26 -86.5t81 -35.5t82 35.5t27 86.5v0z" />
    <glyph glyph-name="eth" unicode="&#x440;" horiz-adv-x="559" 
d="M57 -193v621h118v-71q26 40 66 62.5t85 22.5q9 0 18.5 -1t19.5 -3q12 -3 23.5 -7.5t22.5 -9.5q49 -26 75 -78t29 -109v-7.5v-7.5v-5.5v-5.5q-4 -84 -54 -153t-139 -69l-2 -1q-49 1 -83 19.5t-61 57.5q4 -19 4.5 -38.5t0.5 -37.5v-179h-123v0zM386 214q0 61 -33 92.5
t-73 32.5h-1.5h-1.5h-4h-4q-37 -3 -68 -34t-31 -89v-2q0 -51 26 -86.5t81 -35.5t82 35.5t27 86.5v0z" />
    <glyph glyph-name="quotedblleft" unicode="&#xf1;" horiz-adv-x="451" 
d="M392 13q-14 -7 -29 -12t-30 -9q-15 -3 -30 -5t-29 -2q-88 0 -156.5 63t-68.5 166l1 5q2 104 70.5 163t156.5 59q14 0 28.5 -1.5t29.5 -4.5q14 -3 28.5 -8t28.5 -12v-125q-15 14 -34.5 24t-40.5 14q-7 1 -14.5 2t-14.5 1q-43 0 -78 -28t-35 -81q0 -1 0.5 -1.5l0.5 -0.5
q0 -1 0.5 -1.5t0.5 -1.5q1 -45 25 -78.5t70 -39.5h3.5t3.5 -1h2h2q3 0 5.5 -0.5t4.5 -0.5q29 0 54.5 12t44.5 34v-130v0z" />
    <glyph glyph-name="quotedblleft" unicode="&#x441;" horiz-adv-x="451" 
d="M392 13q-14 -7 -29 -12t-30 -9q-15 -3 -30 -5t-29 -2q-88 0 -156.5 63t-68.5 166l1 5q2 104 70.5 163t156.5 59q14 0 28.5 -1.5t29.5 -4.5q14 -3 28.5 -8t28.5 -12v-125q-15 14 -34.5 24t-40.5 14q-7 1 -14.5 2t-14.5 1q-43 0 -78 -28t-35 -81q0 -1 0.5 -1.5l0.5 -0.5
q0 -1 0.5 -1.5t0.5 -1.5q1 -45 25 -78.5t70 -39.5h3.5t3.5 -1h2h2q3 0 5.5 -0.5t4.5 -0.5q29 0 54.5 12t44.5 34v-130v0z" />
    <glyph glyph-name="two" unicode="&#xf2;" horiz-adv-x="410" 
d="M381 428v-89h-114v-339h-124v339h-114v89h352v0z" />
    <glyph glyph-name="two" unicode="&#x442;" horiz-adv-x="410" 
d="M381 428v-89h-114v-339h-124v339h-114v89h352v0z" />
    <glyph glyph-name="three" unicode="&#xf3;" horiz-adv-x="522" 
d="M198 32l-170 396h141l74 -196q8 -23 12.5 -47t7.5 -49q2 13 5 25.5t7 25.5q3 12 7 24.5t8 25.5l65 191h141l-255 -621h-137l94 225v0z" />
    <glyph glyph-name="three" unicode="&#x443;" horiz-adv-x="522" 
d="M198 32l-170 396h141l74 -196q8 -23 12.5 -47t7.5 -49q2 13 5 25.5t7 25.5q3 12 7 24.5t8 25.5l65 191h141l-255 -621h-137l94 225v0z" />
    <glyph glyph-name="ocircumflex" unicode="&#xf4;" horiz-adv-x="650" 
d="M384 -13v-178h-125v178q-97 1 -157.5 70t-60.5 159q0 6 0.5 12.5t1.5 13.5v2t1 2q0 3 0.5 7t0.5 8q15 89 75 133.5t128 47.5h5.5h5.5v232h125v-230q0 -1 -0.5 -1.5l-0.5 -0.5h-0.5h-0.5q83 -1 152 -58.5t69 -169.5q-1 -103 -66 -164.5t-155 -61.5l2 -1v0zM259 331
q-46 0 -72 -32.5t-30 -70.5v-5.5v-5.5v-2.5v-3.5q2 -38 28 -70t73 -32h1v222v0zM489 219q0 43 -32 77.5t-73 34.5v-222q41 0 73 32.5t32 77.5v0z" />
    <glyph glyph-name="ocircumflex" unicode="&#x444;" horiz-adv-x="650" 
d="M384 -13v-178h-125v178q-97 1 -157.5 70t-60.5 159q0 6 0.5 12.5t1.5 13.5v2t1 2q0 3 0.5 7t0.5 8q15 89 75 133.5t128 47.5h5.5h5.5v232h125v-230q0 -1 -0.5 -1.5l-0.5 -0.5h-0.5h-0.5q83 -1 152 -58.5t69 -169.5q-1 -103 -66 -164.5t-155 -61.5l2 -1v0zM259 331
q-46 0 -72 -32.5t-30 -70.5v-5.5v-5.5v-2.5v-3.5q2 -38 28 -70t73 -32h1v222v0zM489 219q0 43 -32 77.5t-73 34.5v-222q41 0 73 32.5t32 77.5v0z" />
    <glyph glyph-name="otilde" unicode="&#xf5;" horiz-adv-x="522" 
d="M175 0h-146l151 217l-143 211h154l42 -80q7 -12 11.5 -24t8.5 -25q2 -4 3.5 -8.5t2.5 -8.5q5 18 12.5 34t15.5 32l47 80h146l-146 -209l154 -219h-154l-50 88q-6 11 -11.5 24t-10.5 27q-1 3 -2 6.5t-2 6.5q-2 -5 -4 -11t-4 -11q-4 -11 -9.5 -22t-11.5 -22l-54 -86v0z" />
    <glyph glyph-name="otilde" unicode="&#x445;" horiz-adv-x="522" 
d="M175 0h-146l151 217l-143 211h154l42 -80q7 -12 11.5 -24t8.5 -25q2 -4 3.5 -8.5t2.5 -8.5q5 18 12.5 34t15.5 32l47 80h146l-146 -209l154 -219h-154l-50 88q-6 11 -11.5 24t-10.5 27q-1 3 -2 6.5t-2 6.5q-2 -5 -4 -11t-4 -11q-4 -11 -9.5 -22t-11.5 -22l-54 -86v0z" />
    <glyph glyph-name="odieresis" unicode="&#xf6;" horiz-adv-x="580" 
d="M182 428v-350h186v350h123v-350h55v-175h-123v97h-365v428h124v0z" />
    <glyph glyph-name="odieresis" unicode="&#x446;" horiz-adv-x="580" 
d="M182 428v-350h186v350h123v-350h55v-175h-123v97h-365v428h124v0z" />
    <glyph glyph-name="divide" unicode="&#xf7;" horiz-adv-x="511" 
d="M327 198q-24 -19 -59.5 -32.5t-73.5 -13.5q-21 0 -44.5 5.5t-47.5 18.5q-8 4 -16 9t-16 11q-10 11 -16.5 32t-6.5 49v151h122v-154q0 -8 2.5 -14t5.5 -9q3 -4 5.5 -6l2.5 -2q9 -5 19.5 -9.5t21.5 -7.5q6 -1 11.5 -1.5t10.5 -0.5h6t7 1q18 2 36 10t30 18v175h125v-428
h-125v198v0z" />
    <glyph glyph-name="divide" unicode="&#x447;" horiz-adv-x="511" 
d="M327 198q-24 -19 -59.5 -32.5t-73.5 -13.5q-21 0 -44.5 5.5t-47.5 18.5q-8 4 -16 9t-16 11q-10 11 -16.5 32t-6.5 49v151h122v-154q0 -8 2.5 -14t5.5 -9q3 -4 5.5 -6l2.5 -2q9 -5 19.5 -9.5t21.5 -7.5q6 -1 11.5 -1.5t10.5 -0.5h6t7 1q18 2 36 10t30 18v175h125v-428
h-125v198v0z" />
    <glyph glyph-name="oslash" unicode="&#xf8;" horiz-adv-x="731" 
d="M426 428v-350h120v350h123v-428h-611v428h124v-350h119v350h125v0z" />
    <glyph glyph-name="oslash" unicode="&#x448;" horiz-adv-x="731" 
d="M426 428v-350h120v350h123v-428h-611v428h124v-350h119v350h125v0z" />
    <glyph glyph-name="question" unicode="&#xf9;" horiz-adv-x="750" 
d="M295 78v350h125v-350h120v350h123v-350h49v-175h-119v97h-541v428h123v-350h120v0z" />
    <glyph glyph-name="question" unicode="&#x449;" horiz-adv-x="750" 
d="M295 78v350h125v-350h120v350h123v-350h49v-175h-119v97h-541v428h123v-350h120v0z" />
    <glyph glyph-name="A" unicode="&#xfa;" horiz-adv-x="530" 
d="M120 0v335h-86v93h209v-172q17 0 36 -0.5t39 -1.5q58 -5 106.5 -30t48.5 -96v-8q0 -49 -34.5 -84.5t-115.5 -35.5h-203v0zM357 128q0 38 -23.5 47.5t-56.5 9.5h-34v-114h4h4q2 -1 4 -1h4q38 0 67.5 9t30.5 49v0z" />
    <glyph glyph-name="A" unicode="&#x44a;" horiz-adv-x="530" 
d="M120 0v335h-86v93h209v-172q17 0 36 -0.5t39 -1.5q58 -5 106.5 -30t48.5 -96v-8q0 -49 -34.5 -84.5t-115.5 -35.5h-203v0zM357 128q0 38 -23.5 47.5t-56.5 9.5h-34v-114h4h4q2 -1 4 -1h4q38 0 67.5 9t30.5 49v0z" />
    <glyph glyph-name="slash" unicode="&#xfb;" horiz-adv-x="640" 
d="M60 428h125v-172q17 0 35 -0.5t36 -1.5q60 -5 109.5 -30.5t49.5 -97.5v-6q-2 -52 -35.5 -86t-89.5 -34h-230v428v0zM298 128q0 38 -24.5 47.5t-56.5 9.5h-32v-114h4h4q2 -1 4 -1h4q37 0 66.5 9t30.5 49v0zM457 428h123v-428h-123v428v0z" />
    <glyph glyph-name="slash" unicode="&#x44b;" horiz-adv-x="640" 
d="M60 428h125v-172q17 0 35 -0.5t36 -1.5q60 -5 109.5 -30.5t49.5 -97.5v-6q-2 -52 -35.5 -86t-89.5 -34h-230v428v0zM298 128q0 38 -24.5 47.5t-56.5 9.5h-32v-114h4h4q2 -1 4 -1h4q37 0 66.5 9t30.5 49v0zM457 428h123v-428h-123v428v0z" />
    <glyph glyph-name="udieresis" unicode="&#xfc;" horiz-adv-x="462" 
d="M57 428h123v-172h21h21q28 -1 54 -2.5t47 -5.5q36 -11 61.5 -40.5t25.5 -74.5v-13q0 -52 -37 -86t-128 -34h-188v428v0zM293 128q0 38 -23 47.5t-56 9.5h-34v-114h4h4q2 -1 4 -1h4q38 0 67 9t30 49v0z" />
    <glyph glyph-name="udieresis" unicode="&#x44c;" horiz-adv-x="462" 
d="M57 428h123v-172h21h21q28 -1 54 -2.5t47 -5.5q36 -11 61.5 -40.5t25.5 -74.5v-13q0 -52 -37 -86t-128 -34h-188v428v0zM293 128q0 38 -23 47.5t-56 9.5h-34v-114h4h4q2 -1 4 -1h4q38 0 67 9t30 49v0z" />
    <glyph glyph-name="period" unicode="&#xfd;" horiz-adv-x="451" 
d="M175 100q33 4 57.5 28t31.5 55h-167v73h167q-7 37 -37 54.5t-64 18.5h-2h-2h-6h-6q-27 -3 -51.5 -12.5t-40.5 -24.5l-2 125q10 4 19.5 7.5t18.5 6.5q19 6 38.5 8.5t37.5 2.5q89 0 158.5 -59t71.5 -163v-3q0 -106 -68.5 -167.5t-158.5 -61.5q-15 0 -31.5 2t-33.5 6
q-13 3 -26 7.5t-26 11.5l2 128q20 -21 44.5 -32.5t52.5 -11.5h4.5h5.5h1l1 1h6h5v0z" />
    <glyph glyph-name="period" unicode="&#x44d;" horiz-adv-x="451" 
d="M175 100q33 4 57.5 28t31.5 55h-167v73h167q-7 37 -37 54.5t-64 18.5h-2h-2h-6h-6q-27 -3 -51.5 -12.5t-40.5 -24.5l-2 125q10 4 19.5 7.5t18.5 6.5q19 6 38.5 8.5t37.5 2.5q89 0 158.5 -59t71.5 -163v-3q0 -106 -68.5 -167.5t-158.5 -61.5q-15 0 -31.5 2t-33.5 6
q-13 3 -26 7.5t-26 11.5l2 128q20 -21 44.5 -32.5t52.5 -11.5h4.5h5.5h1l1 1h6h5v0z" />
    <glyph glyph-name="thorn" unicode="&#xfe;" horiz-adv-x="741" 
d="M185 256h55v3q0 1 0.5 2.5t0.5 3.5q1 1 1 2.5v3.5q1 1 1 3v3q21 78 78.5 118.5t122.5 44.5q4 1 8 1h8h1.5h1.5q85 -1 155.5 -59.5t70.5 -169.5q0 -102 -68.5 -163t-160.5 -61l-21 -1q-73 6 -124.5 49.5t-71.5 109.5q-1 4 -1.5 8.5t-1.5 9.5q-1 4 -1.5 9t-1.5 10h-52v-183
h-123v428h123v-172v0zM464 107h1.5h1.5q39 1 71.5 33.5t32.5 75.5v1.5v1.5q-1 40 -33.5 74t-70.5 36h-1.5h-1.5h-1.5h-1.5q-39 -2 -72 -36t-34 -74v-1.5v-1.5q0 -39 29 -69.5t63 -37.5q5 -1 9 -1.5t8 -0.5v0z" />
    <glyph glyph-name="thorn" unicode="&#x44e;" horiz-adv-x="741" 
d="M185 256h55v3q0 1 0.5 2.5t0.5 3.5q1 1 1 2.5v3.5q1 1 1 3v3q21 78 78.5 118.5t122.5 44.5q4 1 8 1h8h1.5h1.5q85 -1 155.5 -59.5t70.5 -169.5q0 -102 -68.5 -163t-160.5 -61l-21 -1q-73 6 -124.5 49.5t-71.5 109.5q-1 4 -1.5 8.5t-1.5 9.5q-1 4 -1.5 9t-1.5 10h-52v-183
h-123v428h123v-172v0zM464 107h1.5h1.5q39 1 71.5 33.5t32.5 75.5v1.5v1.5q-1 40 -33.5 74t-70.5 36h-1.5h-1.5h-1.5h-1.5q-39 -2 -72 -36t-34 -74v-1.5v-1.5q0 -39 29 -69.5t63 -37.5q5 -1 9 -1.5t8 -0.5v0z" />
    <glyph glyph-name="ydieresis" unicode="&#xff;" horiz-adv-x="501" 
d="M70 303q0 33 6.5 52t25.5 35q2 2 5 4.5t6 4.5t6 3.5t5 3.5q28 15 59.5 18.5t83.5 3.5h175v-428h-123v203l-149 -203h-136l154 196q-55 6 -86.5 35t-31.5 72v0zM319 360h-43q-34 0 -62.5 -9t-28.5 -41v-2t1 -1v-2v-2q3 -32 30.5 -43t60.5 -13q11 -1 21.5 -1h20.5v114v0z
" />
    <glyph glyph-name="ydieresis" unicode="&#x44f;" horiz-adv-x="501" 
d="M70 303q0 33 6.5 52t25.5 35q2 2 5 4.5t6 4.5t6 3.5t5 3.5q28 15 59.5 18.5t83.5 3.5h175v-428h-123v203l-149 -203h-136l154 196q-55 6 -86.5 35t-31.5 72v0zM319 360h-43q-34 0 -62.5 -9t-28.5 -41v-2t1 -1v-2v-2q3 -32 30.5 -43t60.5 -13q11 -1 21.5 -1h20.5v114v0z
" />
    <glyph glyph-name="amacron" unicode="&#x101;" 
 />
    <glyph glyph-name="OE" unicode="&#x152;" 
 />
    <glyph glyph-name="glyph258" unicode="&#x153;" 
 />
    <glyph glyph-name="perthousand" unicode="&#x160;" 
 />
    <glyph glyph-name="seven" unicode="&#x161;" 
 />
    <glyph glyph-name="glyph259" unicode="&#x178;" 
 />
    <glyph glyph-name="less" unicode="&#x192;" 
 />
    <glyph glyph-name="glyph237" unicode="&#x2c6;" 
 />
    <glyph glyph-name="six" unicode="&#x2dc;" 
 />
    <glyph glyph-name="numbersign" unicode="&#x2013;" 
 />
    <glyph glyph-name="O" unicode="&#x2014;" 
 />
    <glyph glyph-name="four" unicode="&#x2018;" 
 />
    <glyph glyph-name="quoteright" unicode="&#x2019;" 
 />
    <glyph glyph-name="parenleft" unicode="&#x201a;" 
 />
    <glyph glyph-name="oe" unicode="&#x201c;" 
 />
    <glyph glyph-name="B" unicode="&#x201d;" 
 />
    <glyph glyph-name="greater" unicode="&#x201e;" 
 />
    <glyph glyph-name="glyph233" unicode="&#x2020;" 
 />
    <glyph glyph-name="glyph236" unicode="&#x2021;" 
 />
    <glyph glyph-name="glyph257" unicode="&#x2022;" 
 />
    <glyph glyph-name="glyph232" unicode="&#x2026;" 
 />
    <glyph glyph-name="v" unicode="&#x2030;" 
 />
    <glyph glyph-name="glyph243" unicode="&#x2039;" 
 />
    <glyph glyph-name="eight" unicode="&#x203a;" 
 />
    <glyph glyph-name="dollar" unicode="&#x2122;" 
 />
    <glyph glyph-name="periodcentered" unicode="&#x2219;" 
 />
    <glyph glyph-name="s" 
 />
    <glyph glyph-name="backslash" 
 />
    <glyph glyph-name="nine" 
 />
    <glyph glyph-name="colon" 
 />
    <glyph glyph-name="Y" 
 />
    <glyph glyph-name="X" 
 />
    <glyph glyph-name="asciicircum" 
 />
    <glyph glyph-name="semicolon" 
 />
    <glyph glyph-name="equal" 
 />
    <glyph glyph-name="exclam" 
 />
    <glyph glyph-name="five" 
 />
    <glyph glyph-name="Q" 
 />
    <glyph glyph-name="quotedblright" 
 />
    <glyph glyph-name="hyphen" 
 />
    <glyph glyph-name="space" 
 />
    <glyph glyph-name="E" 
 />
    <glyph glyph-name="M" 
 />
    <glyph glyph-name="plus" 
 />
    <glyph glyph-name="glyph229" 
 />
    <glyph glyph-name="glyph230" 
 />
    <glyph glyph-name="glyph231" 
 />
    <glyph glyph-name="glyph234" 
 />
    <glyph glyph-name="glyph235" 
 />
    <glyph glyph-name="glyph238" 
 />
    <glyph glyph-name="glyph239" 
 />
    <glyph glyph-name="glyph240" 
 />
    <glyph glyph-name="glyph241" 
 />
    <glyph glyph-name="glyph242" 
 />
    <glyph glyph-name="glyph244" 
 />
    <glyph glyph-name="glyph245" 
 />
    <glyph glyph-name="glyph246" 
 />
    <glyph glyph-name="glyph247" 
 />
    <glyph glyph-name="glyph248" 
 />
    <glyph glyph-name="glyph249" 
 />
    <glyph glyph-name="glyph250" 
 />
    <glyph glyph-name="glyph251" 
 />
    <glyph glyph-name="glyph252" 
 />
    <glyph glyph-name="glyph253" 
 />
    <glyph glyph-name="glyph254" 
 />
    <glyph glyph-name="glyph255" 
 />
    <glyph glyph-name="glyph256" 
 />
    <glyph glyph-name="glyph268" 
 />
    <glyph glyph-name="glyph269" 
 />
    <glyph glyph-name="glyph270" 
 />
    <glyph glyph-name="glyph271" 
 />
    <glyph glyph-name="glyph272" 
 />
    <glyph glyph-name="glyph273" 
 />
    <glyph glyph-name="glyph274" 
 />
    <glyph glyph-name="glyph275" 
 />
    <glyph glyph-name="glyph276" 
 />
    <glyph glyph-name="glyph277" 
 />
    <glyph glyph-name="glyph278" 
 />
    <glyph glyph-name="glyph279" 
 />
    <glyph glyph-name="glyph280" 
 />
    <glyph glyph-name="glyph281" 
 />
    <glyph glyph-name="glyph282" 
 />
    <glyph glyph-name="glyph283" 
 />
    <glyph glyph-name="glyph284" 
 />
    <glyph glyph-name="glyph285" 
 />
    <glyph glyph-name="glyph286" 
 />
    <glyph glyph-name="glyph287" 
 />
    <glyph glyph-name="glyph288" 
 />
    <glyph glyph-name="glyph289" 
 />
    <glyph glyph-name="glyph290" 
 />
    <glyph glyph-name="glyph291" 
 />
    <glyph glyph-name="glyph292" 
 />
    <glyph glyph-name="glyph293" 
 />
    <glyph glyph-name="glyph294" 
 />
    <glyph glyph-name="glyph295" 
 />
    <glyph glyph-name="glyph296" 
 />
    <glyph glyph-name="glyph297" 
 />
    <glyph glyph-name="glyph298" 
 />
    <glyph glyph-name="glyph299" 
 />
    <glyph glyph-name="glyph300" 
 />
    <glyph glyph-name="glyph301" 
 />
    <glyph glyph-name="glyph302" 
 />
    <glyph glyph-name="glyph303" 
 />
    <glyph glyph-name="glyph304" 
 />
    <glyph glyph-name="glyph305" 
 />
    <glyph glyph-name="glyph306" 
 />
    <glyph glyph-name="glyph307" 
 />
    <glyph glyph-name="glyph308" 
 />
    <glyph glyph-name="glyph309" 
 />
    <glyph glyph-name="glyph310" 
 />
    <glyph glyph-name="glyph311" 
 />
    <glyph glyph-name="glyph312" 
 />
    <glyph glyph-name="glyph313" 
 />
    <glyph glyph-name="glyph314" 
 />
    <glyph glyph-name="glyph315" 
 />
    <glyph glyph-name="glyph316" 
 />
    <glyph glyph-name="glyph317" 
 />
    <glyph glyph-name="glyph318" 
 />
    <glyph glyph-name="glyph319" 
 />
    <glyph glyph-name="glyph320" 
 />
    <glyph glyph-name="glyph321" 
 />
    <glyph glyph-name="glyph322" 
 />
    <glyph glyph-name="glyph323" 
 />
    <glyph glyph-name="glyph324" 
 />
    <glyph glyph-name="glyph325" 
 />
    <glyph glyph-name="glyph326" 
 />
    <glyph glyph-name="glyph327" 
 />
    <glyph glyph-name="glyph328" 
 />
    <glyph glyph-name="glyph329" 
 />
    <glyph glyph-name="glyph330" 
 />
    <glyph glyph-name="glyph331" 
 />
    <glyph glyph-name="glyph332" 
 />
    <glyph glyph-name="glyph333" 
 />
    <glyph glyph-name="glyph334" 
 />
    <glyph glyph-name="glyph335" 
 />
    <glyph glyph-name="glyph336" 
 />
    <glyph glyph-name="glyph337" 
 />
    <glyph glyph-name="glyph338" 
 />
    <glyph glyph-name="glyph339" 
 />
    <glyph glyph-name="glyph340" 
 />
    <glyph glyph-name="glyph341" 
 />
    <glyph glyph-name="glyph342" 
 />
    <glyph glyph-name="glyph343" 
 />
    <glyph glyph-name="glyph344" 
 />
    <glyph glyph-name="glyph345" 
 />
    <glyph glyph-name="glyph346" 
 />
    <glyph glyph-name="glyph347" 
 />
    <glyph glyph-name="glyph348" 
 />
    <glyph glyph-name="glyph349" 
 />
    <glyph glyph-name="glyph350" 
 />
    <glyph glyph-name="glyph351" 
 />
    <glyph glyph-name="glyph352" 
 />
    <glyph glyph-name="glyph353" 
 />
    <glyph glyph-name="glyph354" 
 />
    <glyph glyph-name="glyph355" 
 />
    <glyph glyph-name="glyph356" 
 />
    <glyph glyph-name="glyph357" 
 />
    <glyph glyph-name="glyph358" 
 />
    <glyph glyph-name="glyph359" 
 />
    <glyph glyph-name="glyph360" 
 />
    <glyph glyph-name="glyph361" 
 />
    <glyph glyph-name="glyph362" 
 />
    <glyph glyph-name="glyph363" 
 />
    <glyph glyph-name="glyph364" 
 />
    <glyph glyph-name="glyph365" 
 />
    <glyph glyph-name="glyph366" 
 />
    <glyph glyph-name="glyph367" 
 />
    <glyph glyph-name="glyph368" 
 />
    <glyph glyph-name="glyph369" 
 />
    <glyph glyph-name="glyph370" 
 />
    <glyph glyph-name="glyph371" 
 />
    <glyph glyph-name="glyph372" 
 />
    <glyph glyph-name="glyph373" 
 />
    <glyph glyph-name="glyph374" 
 />
    <glyph glyph-name="glyph375" 
 />
    <glyph glyph-name="glyph376" 
 />
    <glyph glyph-name="glyph377" 
 />
    <glyph glyph-name="glyph378" 
 />
    <glyph glyph-name="glyph379" 
 />
    <glyph glyph-name="glyph380" 
 />
    <glyph glyph-name="glyph381" 
 />
    <glyph glyph-name="glyph382" 
 />
    <glyph glyph-name="glyph383" 
 />
    <glyph glyph-name="glyph384" 
 />
    <glyph glyph-name="glyph385" 
 />
    <glyph glyph-name="glyph386" 
 />
    <glyph glyph-name="glyph387" 
 />
    <glyph glyph-name="glyph388" 
 />
    <glyph glyph-name="glyph389" 
 />
    <glyph glyph-name="glyph390" 
 />
    <glyph glyph-name="glyph391" 
 />
    <glyph glyph-name="glyph392" 
 />
    <glyph glyph-name="glyph393" 
 />
    <glyph glyph-name="glyph394" 
 />
    <glyph glyph-name="glyph395" 
 />
    <glyph glyph-name="glyph396" 
 />
    <glyph glyph-name="glyph397" 
 />
    <glyph glyph-name="glyph398" 
 />
    <glyph glyph-name="glyph399" 
 />
    <glyph glyph-name="glyph400" 
 />
    <glyph glyph-name="glyph401" 
 />
    <glyph glyph-name="glyph402" 
 />
    <glyph glyph-name="glyph403" 
 />
    <glyph glyph-name="glyph404" 
 />
    <glyph glyph-name="glyph405" 
 />
    <glyph glyph-name="glyph406" 
 />
    <glyph glyph-name="glyph407" 
 />
    <glyph glyph-name="glyph408" 
 />
    <glyph glyph-name="glyph409" 
 />
    <glyph glyph-name="glyph410" 
 />
    <glyph glyph-name="glyph411" 
 />
    <glyph glyph-name="glyph412" 
 />
    <glyph glyph-name="glyph413" 
 />
    <glyph glyph-name="glyph414" 
 />
    <glyph glyph-name="glyph415" 
 />
    <glyph glyph-name="glyph416" 
 />
    <glyph glyph-name="glyph417" 
 />
    <glyph glyph-name="glyph418" 
 />
    <glyph glyph-name="glyph419" 
 />
    <glyph glyph-name="glyph420" 
 />
    <glyph glyph-name="glyph421" 
 />
    <glyph glyph-name="glyph422" 
 />
    <glyph glyph-name="glyph423" 
 />
    <glyph glyph-name="glyph424" 
 />
    <glyph glyph-name="glyph425" 
 />
    <glyph glyph-name="glyph426" 
 />
    <glyph glyph-name="glyph427" 
 />
    <glyph glyph-name="glyph428" 
 />
    <glyph glyph-name="glyph429" 
 />
    <glyph glyph-name="glyph430" 
 />
    <glyph glyph-name="glyph431" 
 />
    <glyph glyph-name="glyph432" 
 />
    <glyph glyph-name="glyph433" 
 />
    <glyph glyph-name="glyph434" 
 />
    <glyph glyph-name="glyph435" 
 />
    <glyph glyph-name="glyph436" 
 />
    <glyph glyph-name="glyph437" 
 />
    <glyph glyph-name="glyph438" 
 />
    <glyph glyph-name="glyph439" 
 />
    <glyph glyph-name="glyph440" 
 />
    <glyph glyph-name="glyph441" 
 />
    <glyph glyph-name="glyph442" 
 />
    </font>
</defs>
</svg>
